<svg width="24" height="24" viewBox="0 0 24 24" fill="none" xmlns="http://www.w3.org/2000/svg">
<g clip-path="url(#clip0_674_3980)">
<path d="M15.5847 12.6006C15.8697 12.8856 16.1034 13.2043 16.2857 13.5457C16.5473 13.4675 16.8206 13.4261 17.1018 13.4261C18.2782 13.4261 19.3167 14.1511 19.9368 15.2568C20.0469 15.4531 20.3613 15.4096 20.3613 15.1845V15.1845C20.3613 12.6596 18.7717 10.6151 16.7367 10.6151L16.5831 10.983C16.3214 11.5743 16.0088 12.1387 15.6506 12.6705M15.5847 12.6006L15.6506 12.6705M15.5847 12.6006C13.9278 10.9437 11.137 11.0229 9.21519 12.7305C10.0913 12.7552 11.0892 13.0785 11.7187 13.7081M15.5847 12.6006C17.3114 14.3273 17.1525 17.2858 15.2298 19.2086C13.9935 20.4449 12.3289 20.9519 10.8389 20.6973C10.4076 20.6237 10.3957 20.0563 10.7505 19.8002C10.9561 19.6517 11.1536 19.4842 11.3401 19.2976C12.9882 17.6496 13.1577 15.147 11.7187 13.7081M15.6506 12.6705C16.9164 10.7909 17.5044 8.65696 17.5044 6.06539L17.3979 3.67678C17.3724 3.10497 16.9662 2.62151 16.4073 2.4979C15.7251 2.34702 15.0498 2.77772 14.8989 3.45991C13.6353 9.17318 9.1732 13.6352 3.45992 14.8989C2.90105 15.0225 2.49481 15.506 2.46932 16.0778C2.43821 16.7758 2.97882 17.3668 3.6768 17.3979L6.0654 17.5044C6.39065 17.5189 6.71637 17.5189 7.04162 17.5044C9.10466 17.4124 11.009 16.7559 12.6119 15.6908C12.6435 15.6697 12.6604 15.6324 12.6548 15.5949C12.5488 14.8874 12.2389 14.2282 11.7187 13.7081M5.35432 8.83574C7.13973 7.05034 9.7536 6.76949 11.1926 8.20846C11.5777 8.59357 11.8396 9.06283 11.9825 9.57784C11.3452 10.378 10.6288 11.1107 9.84428 11.765C9.77957 11.819 9.68076 11.7724 9.67564 11.6883C9.63412 11.0061 9.3804 10.3751 8.90254 9.89722C8.11528 9.10996 6.91242 8.93107 5.75215 9.3113C5.44405 9.41227 5.12506 9.065 5.35432 8.83574V8.83574Z" stroke="#81859F" stroke-width="1.5" stroke-linecap="round"/>
</g>
<defs>
<clipPath id="clip0_674_3980">
<rect width="24" height="24" fill="white"/>
</clipPath>
</defs>
</svg>
