<svg width="1071" height="1071" viewBox="0 0 1071 1071" fill="none" xmlns="http://www.w3.org/2000/svg">
<path opacity="0.15" d="M60.7978 4.73047H4.73096V60.7973H60.7978V4.73047Z" stroke="#6D6D6D" stroke-width="0.5"/>
<path opacity="0.15" d="M116.864 4.73047H60.7969V60.7973H116.864V4.73047Z" stroke="#6D6D6D" stroke-width="0.5"/>
<path opacity="0.15" d="M172.932 4.73047H116.865V60.7973H172.932V4.73047Z" stroke="#6D6D6D" stroke-width="0.5"/>
<path opacity="0.15" d="M228.998 4.73047H172.931V60.7973H228.998V4.73047Z" stroke="#6D6D6D" stroke-width="0.5"/>
<path opacity="0.15" d="M285.065 4.73047H228.999V60.7973H285.065V4.73047Z" stroke="#6D6D6D" stroke-width="0.5"/>
<path opacity="0.15" d="M341.132 4.73047H285.065V60.7973H341.132V4.73047Z" stroke="#6D6D6D" stroke-width="0.5"/>
<path opacity="0.15" d="M397.199 4.73047H341.132V60.7973H397.199V4.73047Z" stroke="#6D6D6D" stroke-width="0.5"/>
<path opacity="0.15" d="M453.266 4.73047H397.199V60.7973H453.266V4.73047Z" stroke="#6D6D6D" stroke-width="0.5"/>
<path opacity="0.15" d="M509.331 4.73047H453.265V60.7973H509.331V4.73047Z" stroke="#6D6D6D" stroke-width="0.5"/>
<path opacity="0.15" d="M565.399 4.73047H509.333V60.7973H565.399V4.73047Z" stroke="#6D6D6D" stroke-width="0.5"/>
<path opacity="0.15" d="M621.465 4.73047H565.398V60.7973H621.465V4.73047Z" stroke="#6D6D6D" stroke-width="0.5"/>
<path opacity="0.15" d="M677.533 4.73047H621.466V60.7973H677.533V4.73047Z" stroke="#6D6D6D" stroke-width="0.5"/>
<path opacity="0.15" d="M733.598 4.73047H677.531V60.7973H733.598V4.73047Z" stroke="#6D6D6D" stroke-width="0.5"/>
<path opacity="0.15" d="M789.665 4.73047H733.599V60.7973H789.665V4.73047Z" stroke="#6D6D6D" stroke-width="0.5"/>
<path opacity="0.15" d="M845.734 4.73047H789.667V60.7973H845.734V4.73047Z" stroke="#6D6D6D" stroke-width="0.5"/>
<path opacity="0.15" d="M901.799 4.73047H845.732V60.7973H901.799V4.73047Z" stroke="#6D6D6D" stroke-width="0.5"/>
<path opacity="0.15" d="M957.866 4.73047H901.799V60.7973H957.866V4.73047Z" stroke="#6D6D6D" stroke-width="0.5"/>
<path opacity="0.15" d="M1013.93 4.73047H957.867V60.7973H1013.93V4.73047Z" stroke="#6D6D6D" stroke-width="0.5"/>
<path opacity="0.15" d="M1070 4.73047H1013.93V60.7973H1070V4.73047Z" stroke="#6D6D6D" stroke-width="0.5"/>
<path opacity="0.15" d="M60.7978 60.7974H4.73096V116.864H60.7978V60.7974Z" stroke="#6D6D6D" stroke-width="0.5"/>
<path opacity="0.15" d="M116.864 60.7974H60.7969V116.864H116.864V60.7974Z" stroke="#6D6D6D" stroke-width="0.5"/>
<path opacity="0.15" d="M172.932 60.7974H116.865V116.864H172.932V60.7974Z" stroke="#6D6D6D" stroke-width="0.5"/>
<path opacity="0.15" d="M228.998 60.7974H172.931V116.864H228.998V60.7974Z" stroke="#6D6D6D" stroke-width="0.5"/>
<path opacity="0.15" d="M285.065 60.7974H228.999V116.864H285.065V60.7974Z" stroke="#6D6D6D" stroke-width="0.5"/>
<path opacity="0.15" d="M341.132 60.7974H285.065V116.864H341.132V60.7974Z" stroke="#6D6D6D" stroke-width="0.5"/>
<path opacity="0.15" d="M397.199 60.7974H341.132V116.864H397.199V60.7974Z" stroke="#6D6D6D" stroke-width="0.5"/>
<path opacity="0.15" d="M453.266 60.7974H397.199V116.864H453.266V60.7974Z" stroke="#6D6D6D" stroke-width="0.5"/>
<path opacity="0.15" d="M509.331 60.7974H453.265V116.864H509.331V60.7974Z" stroke="#6D6D6D" stroke-width="0.5"/>
<path opacity="0.15" d="M565.399 60.7974H509.333V116.864H565.399V60.7974Z" stroke="#6D6D6D" stroke-width="0.5"/>
<path opacity="0.15" d="M621.465 60.7974H565.398V116.864H621.465V60.7974Z" stroke="#6D6D6D" stroke-width="0.5"/>
<path opacity="0.15" d="M677.533 60.7974H621.466V116.864H677.533V60.7974Z" stroke="#6D6D6D" stroke-width="0.5"/>
<path opacity="0.15" d="M733.598 60.7974H677.531V116.864H733.598V60.7974Z" stroke="#6D6D6D" stroke-width="0.5"/>
<path opacity="0.15" d="M789.665 60.7974H733.599V116.864H789.665V60.7974Z" stroke="#6D6D6D" stroke-width="0.5"/>
<path opacity="0.15" d="M845.734 60.7974H789.667V116.864H845.734V60.7974Z" stroke="#6D6D6D" stroke-width="0.5"/>
<path opacity="0.15" d="M901.799 60.7974H845.732V116.864H901.799V60.7974Z" stroke="#6D6D6D" stroke-width="0.5"/>
<path opacity="0.15" d="M957.866 60.7974H901.799V116.864H957.866V60.7974Z" stroke="#6D6D6D" stroke-width="0.5"/>
<path opacity="0.15" d="M1013.93 60.7974H957.867V116.864H1013.93V60.7974Z" stroke="#6D6D6D" stroke-width="0.5"/>
<path opacity="0.15" d="M1070 60.7974H1013.93V116.864H1070V60.7974Z" stroke="#6D6D6D" stroke-width="0.5"/>
<path opacity="0.15" d="M60.7978 116.865H4.73096V172.931H60.7978V116.865Z" stroke="#6D6D6D" stroke-width="0.5"/>
<path opacity="0.15" d="M116.864 116.865H60.7969V172.931H116.864V116.865Z" stroke="#6D6D6D" stroke-width="0.5"/>
<path opacity="0.15" d="M172.932 116.865H116.865V172.931H172.932V116.865Z" stroke="#6D6D6D" stroke-width="0.5"/>
<path opacity="0.15" d="M228.998 116.865H172.931V172.931H228.998V116.865Z" stroke="#6D6D6D" stroke-width="0.5"/>
<path opacity="0.15" d="M285.065 116.865H228.999V172.931H285.065V116.865Z" stroke="#6D6D6D" stroke-width="0.5"/>
<path opacity="0.15" d="M341.132 116.865H285.065V172.931H341.132V116.865Z" stroke="#6D6D6D" stroke-width="0.5"/>
<path opacity="0.15" d="M397.199 116.865H341.132V172.931H397.199V116.865Z" stroke="#6D6D6D" stroke-width="0.5"/>
<path opacity="0.15" d="M453.266 116.865H397.199V172.931H453.266V116.865Z" stroke="#6D6D6D" stroke-width="0.5"/>
<path opacity="0.15" d="M509.331 116.865H453.265V172.931H509.331V116.865Z" stroke="#6D6D6D" stroke-width="0.5"/>
<path opacity="0.15" d="M565.399 116.865H509.333V172.931H565.399V116.865Z" stroke="#6D6D6D" stroke-width="0.5"/>
<path opacity="0.15" d="M621.465 116.865H565.398V172.931H621.465V116.865Z" stroke="#6D6D6D" stroke-width="0.5"/>
<path opacity="0.15" d="M677.533 116.865H621.466V172.931H677.533V116.865Z" stroke="#6D6D6D" stroke-width="0.5"/>
<path opacity="0.15" d="M733.598 116.865H677.531V172.931H733.598V116.865Z" stroke="#6D6D6D" stroke-width="0.5"/>
<path opacity="0.15" d="M789.665 116.865H733.599V172.931H789.665V116.865Z" stroke="#6D6D6D" stroke-width="0.5"/>
<path opacity="0.15" d="M845.734 116.865H789.667V172.931H845.734V116.865Z" stroke="#6D6D6D" stroke-width="0.5"/>
<path opacity="0.15" d="M901.799 116.865H845.732V172.931H901.799V116.865Z" stroke="#6D6D6D" stroke-width="0.5"/>
<path opacity="0.15" d="M957.866 116.865H901.799V172.931H957.866V116.865Z" stroke="#6D6D6D" stroke-width="0.5"/>
<path opacity="0.15" d="M1013.93 116.865H957.867V172.931H1013.93V116.865Z" stroke="#6D6D6D" stroke-width="0.5"/>
<path opacity="0.15" d="M1070 116.865H1013.93V172.931H1070V116.865Z" stroke="#6D6D6D" stroke-width="0.5"/>
<path opacity="0.15" d="M60.7978 172.931H4.73096V228.998H60.7978V172.931Z" stroke="#6D6D6D" stroke-width="0.5"/>
<path opacity="0.15" d="M116.864 172.931H60.7969V228.998H116.864V172.931Z" stroke="#6D6D6D" stroke-width="0.5"/>
<path opacity="0.15" d="M172.932 172.931H116.865V228.998H172.932V172.931Z" stroke="#6D6D6D" stroke-width="0.5"/>
<path opacity="0.15" d="M228.998 172.931H172.931V228.998H228.998V172.931Z" stroke="#6D6D6D" stroke-width="0.5"/>
<path opacity="0.15" d="M285.065 172.931H228.999V228.998H285.065V172.931Z" stroke="#6D6D6D" stroke-width="0.5"/>
<path opacity="0.15" d="M341.132 172.931H285.065V228.998H341.132V172.931Z" stroke="#6D6D6D" stroke-width="0.5"/>
<path opacity="0.15" d="M397.199 172.931H341.132V228.998H397.199V172.931Z" stroke="#6D6D6D" stroke-width="0.5"/>
<path opacity="0.15" d="M453.266 172.931H397.199V228.998H453.266V172.931Z" stroke="#6D6D6D" stroke-width="0.5"/>
<path opacity="0.15" d="M509.331 172.931H453.265V228.998H509.331V172.931Z" stroke="#6D6D6D" stroke-width="0.5"/>
<path opacity="0.15" d="M565.399 172.931H509.333V228.998H565.399V172.931Z" stroke="#6D6D6D" stroke-width="0.5"/>
<path opacity="0.15" d="M621.465 172.931H565.398V228.998H621.465V172.931Z" stroke="#6D6D6D" stroke-width="0.5"/>
<path opacity="0.15" d="M677.533 172.931H621.466V228.998H677.533V172.931Z" stroke="#6D6D6D" stroke-width="0.5"/>
<path opacity="0.15" d="M733.598 172.931H677.531V228.998H733.598V172.931Z" stroke="#6D6D6D" stroke-width="0.5"/>
<path opacity="0.15" d="M789.665 172.931H733.599V228.998H789.665V172.931Z" stroke="#6D6D6D" stroke-width="0.5"/>
<path opacity="0.15" d="M845.734 172.931H789.667V228.998H845.734V172.931Z" stroke="#6D6D6D" stroke-width="0.5"/>
<path opacity="0.15" d="M901.799 172.931H845.732V228.998H901.799V172.931Z" stroke="#6D6D6D" stroke-width="0.5"/>
<path opacity="0.15" d="M957.866 172.931H901.799V228.998H957.866V172.931Z" stroke="#6D6D6D" stroke-width="0.5"/>
<path opacity="0.15" d="M1013.93 172.931H957.867V228.998H1013.93V172.931Z" stroke="#6D6D6D" stroke-width="0.5"/>
<path opacity="0.15" d="M1070 172.931H1013.93V228.998H1070V172.931Z" stroke="#6D6D6D" stroke-width="0.5"/>
<path opacity="0.15" d="M60.7978 228.998H4.73096V285.065H60.7978V228.998Z" stroke="#6D6D6D" stroke-width="0.5"/>
<path opacity="0.15" d="M116.864 228.998H60.7969V285.065H116.864V228.998Z" stroke="#6D6D6D" stroke-width="0.5"/>
<path opacity="0.15" d="M172.932 228.998H116.865V285.065H172.932V228.998Z" stroke="#6D6D6D" stroke-width="0.5"/>
<path opacity="0.15" d="M228.998 228.998H172.931V285.065H228.998V228.998Z" stroke="#6D6D6D" stroke-width="0.5"/>
<path opacity="0.15" d="M285.065 228.998H228.999V285.065H285.065V228.998Z" stroke="#6D6D6D" stroke-width="0.5"/>
<path opacity="0.15" d="M341.132 228.998H285.065V285.065H341.132V228.998Z" stroke="#6D6D6D" stroke-width="0.5"/>
<path opacity="0.15" d="M397.199 228.998H341.132V285.065H397.199V228.998Z" stroke="#6D6D6D" stroke-width="0.5"/>
<path opacity="0.15" d="M453.266 228.998H397.199V285.065H453.266V228.998Z" stroke="#6D6D6D" stroke-width="0.5"/>
<path opacity="0.15" d="M509.331 228.998H453.265V285.065H509.331V228.998Z" stroke="#6D6D6D" stroke-width="0.5"/>
<path opacity="0.15" d="M565.399 228.998H509.333V285.065H565.399V228.998Z" stroke="#6D6D6D" stroke-width="0.5"/>
<path opacity="0.15" d="M621.465 228.998H565.398V285.065H621.465V228.998Z" stroke="#6D6D6D" stroke-width="0.5"/>
<path opacity="0.15" d="M677.533 228.998H621.466V285.065H677.533V228.998Z" stroke="#6D6D6D" stroke-width="0.5"/>
<path opacity="0.15" d="M733.598 228.998H677.531V285.065H733.598V228.998Z" stroke="#6D6D6D" stroke-width="0.5"/>
<path opacity="0.15" d="M789.665 228.998H733.599V285.065H789.665V228.998Z" stroke="#6D6D6D" stroke-width="0.5"/>
<path opacity="0.15" d="M845.734 228.998H789.667V285.065H845.734V228.998Z" stroke="#6D6D6D" stroke-width="0.5"/>
<path opacity="0.15" d="M901.799 228.998H845.732V285.065H901.799V228.998Z" stroke="#6D6D6D" stroke-width="0.5"/>
<path opacity="0.15" d="M957.866 228.998H901.799V285.065H957.866V228.998Z" stroke="#6D6D6D" stroke-width="0.5"/>
<path opacity="0.15" d="M1013.93 228.998H957.867V285.065H1013.93V228.998Z" stroke="#6D6D6D" stroke-width="0.5"/>
<path opacity="0.15" d="M1070 228.998H1013.93V285.065H1070V228.998Z" stroke="#6D6D6D" stroke-width="0.5"/>
<path opacity="0.15" d="M60.7978 285.065H4.73096V341.131H60.7978V285.065Z" stroke="#6D6D6D" stroke-width="0.5"/>
<path opacity="0.15" d="M116.864 285.065H60.7969V341.131H116.864V285.065Z" stroke="#6D6D6D" stroke-width="0.5"/>
<path opacity="0.15" d="M172.932 285.065H116.865V341.131H172.932V285.065Z" stroke="#6D6D6D" stroke-width="0.5"/>
<path opacity="0.15" d="M228.998 285.065H172.931V341.131H228.998V285.065Z" stroke="#6D6D6D" stroke-width="0.5"/>
<path opacity="0.15" d="M285.065 285.065H228.999V341.131H285.065V285.065Z" stroke="#6D6D6D" stroke-width="0.5"/>
<path opacity="0.15" d="M341.132 285.065H285.065V341.131H341.132V285.065Z" stroke="#6D6D6D" stroke-width="0.5"/>
<path opacity="0.15" d="M397.199 285.065H341.132V341.131H397.199V285.065Z" stroke="#6D6D6D" stroke-width="0.5"/>
<path opacity="0.15" d="M453.266 285.065H397.199V341.131H453.266V285.065Z" stroke="#6D6D6D" stroke-width="0.5"/>
<path opacity="0.15" d="M509.331 285.065H453.265V341.131H509.331V285.065Z" stroke="#6D6D6D" stroke-width="0.5"/>
<path opacity="0.15" d="M565.399 285.065H509.333V341.131H565.399V285.065Z" stroke="#6D6D6D" stroke-width="0.5"/>
<path opacity="0.15" d="M621.465 285.065H565.398V341.131H621.465V285.065Z" stroke="#6D6D6D" stroke-width="0.5"/>
<path opacity="0.15" d="M677.533 285.065H621.466V341.131H677.533V285.065Z" stroke="#6D6D6D" stroke-width="0.5"/>
<path opacity="0.15" d="M733.598 285.065H677.531V341.131H733.598V285.065Z" stroke="#6D6D6D" stroke-width="0.5"/>
<path opacity="0.15" d="M789.665 285.065H733.599V341.131H789.665V285.065Z" stroke="#6D6D6D" stroke-width="0.5"/>
<path opacity="0.15" d="M845.734 285.065H789.667V341.131H845.734V285.065Z" stroke="#6D6D6D" stroke-width="0.5"/>
<path opacity="0.15" d="M901.799 285.065H845.732V341.131H901.799V285.065Z" stroke="#6D6D6D" stroke-width="0.5"/>
<path opacity="0.15" d="M957.866 285.065H901.799V341.131H957.866V285.065Z" stroke="#6D6D6D" stroke-width="0.5"/>
<path opacity="0.15" d="M1013.93 285.065H957.867V341.131H1013.93V285.065Z" stroke="#6D6D6D" stroke-width="0.5"/>
<path opacity="0.15" d="M1070 285.065H1013.93V341.131H1070V285.065Z" stroke="#6D6D6D" stroke-width="0.5"/>
<path opacity="0.15" d="M60.7978 341.132H4.73096V397.198H60.7978V341.132Z" stroke="#6D6D6D" stroke-width="0.5"/>
<path opacity="0.15" d="M116.864 341.132H60.7969V397.198H116.864V341.132Z" stroke="#6D6D6D" stroke-width="0.5"/>
<path opacity="0.15" d="M172.932 341.132H116.865V397.198H172.932V341.132Z" stroke="#6D6D6D" stroke-width="0.5"/>
<path opacity="0.15" d="M228.998 341.132H172.931V397.198H228.998V341.132Z" stroke="#6D6D6D" stroke-width="0.5"/>
<path opacity="0.15" d="M285.065 341.132H228.999V397.198H285.065V341.132Z" stroke="#6D6D6D" stroke-width="0.5"/>
<path opacity="0.15" d="M341.132 341.132H285.065V397.198H341.132V341.132Z" stroke="#6D6D6D" stroke-width="0.5"/>
<path opacity="0.15" d="M397.199 341.132H341.132V397.198H397.199V341.132Z" stroke="#6D6D6D" stroke-width="0.5"/>
<path opacity="0.15" d="M453.266 341.132H397.199V397.198H453.266V341.132Z" stroke="#6D6D6D" stroke-width="0.5"/>
<path opacity="0.15" d="M509.331 341.132H453.265V397.198H509.331V341.132Z" stroke="#6D6D6D" stroke-width="0.5"/>
<path opacity="0.15" d="M565.399 341.132H509.333V397.198H565.399V341.132Z" stroke="#6D6D6D" stroke-width="0.5"/>
<path opacity="0.15" d="M621.465 341.132H565.398V397.198H621.465V341.132Z" stroke="#6D6D6D" stroke-width="0.5"/>
<path opacity="0.15" d="M677.533 341.132H621.466V397.198H677.533V341.132Z" stroke="#6D6D6D" stroke-width="0.5"/>
<path opacity="0.15" d="M733.598 341.132H677.531V397.198H733.598V341.132Z" stroke="#6D6D6D" stroke-width="0.5"/>
<path opacity="0.15" d="M789.665 341.132H733.599V397.198H789.665V341.132Z" stroke="#6D6D6D" stroke-width="0.5"/>
<path opacity="0.15" d="M845.734 341.132H789.667V397.198H845.734V341.132Z" stroke="#6D6D6D" stroke-width="0.5"/>
<path opacity="0.15" d="M901.799 341.132H845.732V397.198H901.799V341.132Z" stroke="#6D6D6D" stroke-width="0.5"/>
<path opacity="0.15" d="M957.866 341.132H901.799V397.198H957.866V341.132Z" stroke="#6D6D6D" stroke-width="0.5"/>
<path opacity="0.15" d="M1013.93 341.132H957.867V397.198H1013.93V341.132Z" stroke="#6D6D6D" stroke-width="0.5"/>
<path opacity="0.15" d="M1070 341.132H1013.93V397.198H1070V341.132Z" stroke="#6D6D6D" stroke-width="0.5"/>
<path opacity="0.15" d="M60.7978 397.198H4.73096V453.265H60.7978V397.198Z" stroke="#6D6D6D" stroke-width="0.5"/>
<path opacity="0.15" d="M116.864 397.198H60.7969V453.265H116.864V397.198Z" stroke="#6D6D6D" stroke-width="0.5"/>
<path opacity="0.15" d="M172.932 397.198H116.865V453.265H172.932V397.198Z" stroke="#6D6D6D" stroke-width="0.5"/>
<path opacity="0.15" d="M228.998 397.198H172.931V453.265H228.998V397.198Z" stroke="#6D6D6D" stroke-width="0.5"/>
<path opacity="0.15" d="M285.065 397.198H228.999V453.265H285.065V397.198Z" stroke="#6D6D6D" stroke-width="0.5"/>
<path opacity="0.15" d="M341.132 397.198H285.065V453.265H341.132V397.198Z" stroke="#6D6D6D" stroke-width="0.5"/>
<path opacity="0.15" d="M397.199 397.198H341.132V453.265H397.199V397.198Z" stroke="#6D6D6D" stroke-width="0.5"/>
<path opacity="0.15" d="M453.266 397.198H397.199V453.265H453.266V397.198Z" stroke="#6D6D6D" stroke-width="0.5"/>
<path opacity="0.15" d="M509.331 397.198H453.265V453.265H509.331V397.198Z" stroke="#6D6D6D" stroke-width="0.5"/>
<path opacity="0.15" d="M565.399 397.198H509.333V453.265H565.399V397.198Z" stroke="#6D6D6D" stroke-width="0.5"/>
<path opacity="0.15" d="M621.465 397.198H565.398V453.265H621.465V397.198Z" stroke="#6D6D6D" stroke-width="0.5"/>
<path opacity="0.15" d="M677.533 397.198H621.466V453.265H677.533V397.198Z" stroke="#6D6D6D" stroke-width="0.5"/>
<path opacity="0.15" d="M733.598 397.198H677.531V453.265H733.598V397.198Z" stroke="#6D6D6D" stroke-width="0.5"/>
<path opacity="0.15" d="M789.665 397.198H733.599V453.265H789.665V397.198Z" stroke="#6D6D6D" stroke-width="0.5"/>
<path opacity="0.15" d="M845.734 397.198H789.667V453.265H845.734V397.198Z" stroke="#6D6D6D" stroke-width="0.5"/>
<path opacity="0.15" d="M901.799 397.198H845.732V453.265H901.799V397.198Z" stroke="#6D6D6D" stroke-width="0.5"/>
<path opacity="0.15" d="M957.866 397.198H901.799V453.265H957.866V397.198Z" stroke="#6D6D6D" stroke-width="0.5"/>
<path opacity="0.15" d="M1013.93 397.198H957.867V453.265H1013.93V397.198Z" stroke="#6D6D6D" stroke-width="0.5"/>
<path opacity="0.15" d="M1070 397.198H1013.93V453.265H1070V397.198Z" stroke="#6D6D6D" stroke-width="0.5"/>
<path opacity="0.15" d="M60.7978 453.265H4.73096V509.331H60.7978V453.265Z" stroke="#6D6D6D" stroke-width="0.5"/>
<path opacity="0.15" d="M116.864 453.265H60.7969V509.331H116.864V453.265Z" stroke="#6D6D6D" stroke-width="0.5"/>
<path opacity="0.15" d="M172.932 453.265H116.865V509.331H172.932V453.265Z" stroke="#6D6D6D" stroke-width="0.5"/>
<path opacity="0.15" d="M228.998 453.265H172.931V509.331H228.998V453.265Z" stroke="#6D6D6D" stroke-width="0.5"/>
<path opacity="0.15" d="M285.065 453.265H228.999V509.331H285.065V453.265Z" stroke="#6D6D6D" stroke-width="0.5"/>
<path opacity="0.15" d="M341.132 453.265H285.065V509.331H341.132V453.265Z" stroke="#6D6D6D" stroke-width="0.5"/>
<path opacity="0.15" d="M397.199 453.265H341.132V509.331H397.199V453.265Z" stroke="#6D6D6D" stroke-width="0.5"/>
<path opacity="0.15" d="M453.266 453.265H397.199V509.331H453.266V453.265Z" stroke="#6D6D6D" stroke-width="0.5"/>
<path opacity="0.15" d="M509.331 453.265H453.265V509.331H509.331V453.265Z" stroke="#6D6D6D" stroke-width="0.5"/>
<path opacity="0.15" d="M565.399 453.265H509.333V509.331H565.399V453.265Z" stroke="#6D6D6D" stroke-width="0.5"/>
<path opacity="0.15" d="M621.465 453.265H565.398V509.331H621.465V453.265Z" stroke="#6D6D6D" stroke-width="0.5"/>
<path opacity="0.15" d="M677.533 453.265H621.466V509.331H677.533V453.265Z" stroke="#6D6D6D" stroke-width="0.5"/>
<path opacity="0.15" d="M733.598 453.265H677.531V509.331H733.598V453.265Z" stroke="#6D6D6D" stroke-width="0.5"/>
<path opacity="0.15" d="M789.665 453.265H733.599V509.331H789.665V453.265Z" stroke="#6D6D6D" stroke-width="0.5"/>
<path opacity="0.15" d="M845.734 453.265H789.667V509.331H845.734V453.265Z" stroke="#6D6D6D" stroke-width="0.5"/>
<path opacity="0.15" d="M901.799 453.265H845.732V509.331H901.799V453.265Z" stroke="#6D6D6D" stroke-width="0.5"/>
<path opacity="0.15" d="M957.866 453.265H901.799V509.331H957.866V453.265Z" stroke="#6D6D6D" stroke-width="0.5"/>
<path opacity="0.15" d="M1013.93 453.265H957.867V509.331H1013.93V453.265Z" stroke="#6D6D6D" stroke-width="0.5"/>
<path opacity="0.15" d="M1070 453.265H1013.93V509.331H1070V453.265Z" stroke="#6D6D6D" stroke-width="0.5"/>
<path opacity="0.15" d="M60.7978 509.332H4.73096V565.398H60.7978V509.332Z" stroke="#6D6D6D" stroke-width="0.5"/>
<path opacity="0.15" d="M116.864 509.332H60.7969V565.398H116.864V509.332Z" stroke="#6D6D6D" stroke-width="0.5"/>
<path opacity="0.15" d="M172.932 509.332H116.865V565.398H172.932V509.332Z" stroke="#6D6D6D" stroke-width="0.5"/>
<path opacity="0.15" d="M228.998 509.332H172.931V565.398H228.998V509.332Z" stroke="#6D6D6D" stroke-width="0.5"/>
<path opacity="0.15" d="M285.065 509.332H228.999V565.398H285.065V509.332Z" stroke="#6D6D6D" stroke-width="0.5"/>
<path opacity="0.15" d="M341.132 509.332H285.065V565.398H341.132V509.332Z" stroke="#6D6D6D" stroke-width="0.5"/>
<path opacity="0.15" d="M397.199 509.332H341.132V565.398H397.199V509.332Z" stroke="#6D6D6D" stroke-width="0.5"/>
<path opacity="0.15" d="M453.266 509.332H397.199V565.398H453.266V509.332Z" stroke="#6D6D6D" stroke-width="0.5"/>
<path opacity="0.15" d="M509.331 509.332H453.265V565.398H509.331V509.332Z" stroke="#6D6D6D" stroke-width="0.5"/>
<path opacity="0.15" d="M565.399 509.332H509.333V565.398H565.399V509.332Z" stroke="#6D6D6D" stroke-width="0.5"/>
<path opacity="0.15" d="M621.465 509.332H565.398V565.398H621.465V509.332Z" stroke="#6D6D6D" stroke-width="0.5"/>
<path opacity="0.15" d="M677.533 509.332H621.466V565.398H677.533V509.332Z" stroke="#6D6D6D" stroke-width="0.5"/>
<path opacity="0.15" d="M733.598 509.332H677.531V565.398H733.598V509.332Z" stroke="#6D6D6D" stroke-width="0.5"/>
<path opacity="0.15" d="M789.665 509.332H733.599V565.398H789.665V509.332Z" stroke="#6D6D6D" stroke-width="0.5"/>
<path opacity="0.15" d="M845.734 509.332H789.667V565.398H845.734V509.332Z" stroke="#6D6D6D" stroke-width="0.5"/>
<path opacity="0.15" d="M901.799 509.332H845.732V565.398H901.799V509.332Z" stroke="#6D6D6D" stroke-width="0.5"/>
<path opacity="0.15" d="M957.866 509.332H901.799V565.398H957.866V509.332Z" stroke="#6D6D6D" stroke-width="0.5"/>
<path opacity="0.15" d="M1013.93 509.332H957.867V565.398H1013.93V509.332Z" stroke="#6D6D6D" stroke-width="0.5"/>
<path opacity="0.15" d="M1070 509.332H1013.93V565.398H1070V509.332Z" stroke="#6D6D6D" stroke-width="0.5"/>
<path opacity="0.15" d="M60.7978 565.399H4.73096V621.466H60.7978V565.399Z" stroke="#6D6D6D" stroke-width="0.5"/>
<path opacity="0.15" d="M116.864 565.399H60.7969V621.466H116.864V565.399Z" stroke="#6D6D6D" stroke-width="0.5"/>
<path opacity="0.15" d="M172.932 565.399H116.865V621.466H172.932V565.399Z" stroke="#6D6D6D" stroke-width="0.5"/>
<path opacity="0.15" d="M228.998 565.399H172.931V621.466H228.998V565.399Z" stroke="#6D6D6D" stroke-width="0.5"/>
<path opacity="0.15" d="M285.065 565.399H228.999V621.466H285.065V565.399Z" stroke="#6D6D6D" stroke-width="0.5"/>
<path opacity="0.15" d="M341.132 565.399H285.065V621.466H341.132V565.399Z" stroke="#6D6D6D" stroke-width="0.5"/>
<path opacity="0.15" d="M397.199 565.399H341.132V621.466H397.199V565.399Z" stroke="#6D6D6D" stroke-width="0.5"/>
<path opacity="0.15" d="M453.266 565.399H397.199V621.466H453.266V565.399Z" stroke="#6D6D6D" stroke-width="0.5"/>
<path opacity="0.15" d="M509.331 565.399H453.265V621.466H509.331V565.399Z" stroke="#6D6D6D" stroke-width="0.5"/>
<path opacity="0.15" d="M565.399 565.399H509.333V621.466H565.399V565.399Z" stroke="#6D6D6D" stroke-width="0.5"/>
<path opacity="0.15" d="M621.465 565.399H565.398V621.466H621.465V565.399Z" stroke="#6D6D6D" stroke-width="0.5"/>
<path opacity="0.15" d="M677.533 565.399H621.466V621.466H677.533V565.399Z" stroke="#6D6D6D" stroke-width="0.5"/>
<path opacity="0.15" d="M733.598 565.399H677.531V621.466H733.598V565.399Z" stroke="#6D6D6D" stroke-width="0.5"/>
<path opacity="0.15" d="M789.665 565.399H733.599V621.466H789.665V565.399Z" stroke="#6D6D6D" stroke-width="0.5"/>
<path opacity="0.15" d="M845.734 565.399H789.667V621.466H845.734V565.399Z" stroke="#6D6D6D" stroke-width="0.5"/>
<path opacity="0.15" d="M901.799 565.399H845.732V621.466H901.799V565.399Z" stroke="#6D6D6D" stroke-width="0.5"/>
<path opacity="0.15" d="M957.866 565.399H901.799V621.466H957.866V565.399Z" stroke="#6D6D6D" stroke-width="0.5"/>
<path opacity="0.15" d="M1013.93 565.399H957.867V621.466H1013.93V565.399Z" stroke="#6D6D6D" stroke-width="0.5"/>
<path opacity="0.15" d="M1070 565.399H1013.93V621.466H1070V565.399Z" stroke="#6D6D6D" stroke-width="0.5"/>
<path opacity="0.15" d="M60.7978 621.466H4.73096V677.533H60.7978V621.466Z" stroke="#6D6D6D" stroke-width="0.5"/>
<path opacity="0.15" d="M116.864 621.466H60.7969V677.533H116.864V621.466Z" stroke="#6D6D6D" stroke-width="0.5"/>
<path opacity="0.15" d="M172.932 621.466H116.865V677.533H172.932V621.466Z" stroke="#6D6D6D" stroke-width="0.5"/>
<path opacity="0.15" d="M228.998 621.466H172.931V677.533H228.998V621.466Z" stroke="#6D6D6D" stroke-width="0.5"/>
<path opacity="0.15" d="M285.065 621.466H228.999V677.533H285.065V621.466Z" stroke="#6D6D6D" stroke-width="0.5"/>
<path opacity="0.15" d="M341.132 621.466H285.065V677.533H341.132V621.466Z" stroke="#6D6D6D" stroke-width="0.5"/>
<path opacity="0.15" d="M397.199 621.466H341.132V677.533H397.199V621.466Z" stroke="#6D6D6D" stroke-width="0.5"/>
<path opacity="0.15" d="M453.266 621.466H397.199V677.533H453.266V621.466Z" stroke="#6D6D6D" stroke-width="0.5"/>
<path opacity="0.15" d="M509.331 621.466H453.265V677.533H509.331V621.466Z" stroke="#6D6D6D" stroke-width="0.5"/>
<path opacity="0.15" d="M565.399 621.466H509.333V677.533H565.399V621.466Z" stroke="#6D6D6D" stroke-width="0.5"/>
<path opacity="0.15" d="M621.465 621.466H565.398V677.533H621.465V621.466Z" stroke="#6D6D6D" stroke-width="0.5"/>
<path opacity="0.15" d="M677.533 621.466H621.466V677.533H677.533V621.466Z" stroke="#6D6D6D" stroke-width="0.5"/>
<path opacity="0.15" d="M733.598 621.466H677.531V677.533H733.598V621.466Z" stroke="#6D6D6D" stroke-width="0.5"/>
<path opacity="0.15" d="M789.665 621.466H733.599V677.533H789.665V621.466Z" stroke="#6D6D6D" stroke-width="0.5"/>
<path opacity="0.15" d="M845.734 621.466H789.667V677.533H845.734V621.466Z" stroke="#6D6D6D" stroke-width="0.5"/>
<path opacity="0.15" d="M901.799 621.466H845.732V677.533H901.799V621.466Z" stroke="#6D6D6D" stroke-width="0.5"/>
<path opacity="0.15" d="M957.866 621.466H901.799V677.533H957.866V621.466Z" stroke="#6D6D6D" stroke-width="0.5"/>
<path opacity="0.15" d="M1013.93 621.466H957.867V677.533H1013.93V621.466Z" stroke="#6D6D6D" stroke-width="0.5"/>
<path opacity="0.15" d="M1070 621.466H1013.93V677.533H1070V621.466Z" stroke="#6D6D6D" stroke-width="0.5"/>
<path opacity="0.15" d="M60.7978 677.532H4.73096V733.599H60.7978V677.532Z" stroke="#6D6D6D" stroke-width="0.5"/>
<path opacity="0.15" d="M116.864 677.532H60.7969V733.599H116.864V677.532Z" stroke="#6D6D6D" stroke-width="0.5"/>
<path opacity="0.15" d="M172.932 677.532H116.865V733.599H172.932V677.532Z" stroke="#6D6D6D" stroke-width="0.5"/>
<path opacity="0.15" d="M228.998 677.532H172.931V733.599H228.998V677.532Z" stroke="#6D6D6D" stroke-width="0.5"/>
<path opacity="0.15" d="M285.065 677.532H228.999V733.599H285.065V677.532Z" stroke="#6D6D6D" stroke-width="0.5"/>
<path opacity="0.15" d="M341.132 677.532H285.065V733.599H341.132V677.532Z" stroke="#6D6D6D" stroke-width="0.5"/>
<path opacity="0.15" d="M397.199 677.532H341.132V733.599H397.199V677.532Z" stroke="#6D6D6D" stroke-width="0.5"/>
<path opacity="0.15" d="M453.266 677.532H397.199V733.599H453.266V677.532Z" stroke="#6D6D6D" stroke-width="0.5"/>
<path opacity="0.15" d="M509.331 677.532H453.265V733.599H509.331V677.532Z" stroke="#6D6D6D" stroke-width="0.5"/>
<path opacity="0.15" d="M565.399 677.532H509.333V733.599H565.399V677.532Z" stroke="#6D6D6D" stroke-width="0.5"/>
<path opacity="0.15" d="M621.465 677.532H565.398V733.599H621.465V677.532Z" stroke="#6D6D6D" stroke-width="0.5"/>
<path opacity="0.15" d="M677.533 677.532H621.466V733.599H677.533V677.532Z" stroke="#6D6D6D" stroke-width="0.5"/>
<path opacity="0.15" d="M733.598 677.532H677.531V733.599H733.598V677.532Z" stroke="#6D6D6D" stroke-width="0.5"/>
<path opacity="0.15" d="M789.665 677.532H733.599V733.599H789.665V677.532Z" stroke="#6D6D6D" stroke-width="0.5"/>
<path opacity="0.15" d="M845.734 677.532H789.667V733.599H845.734V677.532Z" stroke="#6D6D6D" stroke-width="0.5"/>
<path opacity="0.15" d="M901.799 677.532H845.732V733.599H901.799V677.532Z" stroke="#6D6D6D" stroke-width="0.5"/>
<path opacity="0.15" d="M957.866 677.532H901.799V733.599H957.866V677.532Z" stroke="#6D6D6D" stroke-width="0.5"/>
<path opacity="0.15" d="M1013.93 677.532H957.867V733.599H1013.93V677.532Z" stroke="#6D6D6D" stroke-width="0.5"/>
<path opacity="0.15" d="M1070 677.532H1013.93V733.599H1070V677.532Z" stroke="#6D6D6D" stroke-width="0.5"/>
<path opacity="0.15" d="M60.7978 733.599H4.73096V789.666H60.7978V733.599Z" stroke="#6D6D6D" stroke-width="0.5"/>
<path opacity="0.15" d="M116.864 733.599H60.7969V789.666H116.864V733.599Z" stroke="#6D6D6D" stroke-width="0.5"/>
<path opacity="0.15" d="M172.932 733.599H116.865V789.666H172.932V733.599Z" stroke="#6D6D6D" stroke-width="0.5"/>
<path opacity="0.15" d="M228.998 733.599H172.931V789.666H228.998V733.599Z" stroke="#6D6D6D" stroke-width="0.5"/>
<path opacity="0.15" d="M285.065 733.599H228.999V789.666H285.065V733.599Z" stroke="#6D6D6D" stroke-width="0.5"/>
<path opacity="0.15" d="M341.132 733.599H285.065V789.666H341.132V733.599Z" stroke="#6D6D6D" stroke-width="0.5"/>
<path opacity="0.15" d="M397.199 733.599H341.132V789.666H397.199V733.599Z" stroke="#6D6D6D" stroke-width="0.5"/>
<path opacity="0.15" d="M453.266 733.599H397.199V789.666H453.266V733.599Z" stroke="#6D6D6D" stroke-width="0.5"/>
<path opacity="0.15" d="M509.331 733.599H453.265V789.666H509.331V733.599Z" stroke="#6D6D6D" stroke-width="0.5"/>
<path opacity="0.15" d="M565.399 733.599H509.333V789.666H565.399V733.599Z" stroke="#6D6D6D" stroke-width="0.5"/>
<path opacity="0.15" d="M621.465 733.599H565.398V789.666H621.465V733.599Z" stroke="#6D6D6D" stroke-width="0.5"/>
<path opacity="0.15" d="M677.533 733.599H621.466V789.666H677.533V733.599Z" stroke="#6D6D6D" stroke-width="0.5"/>
<path opacity="0.15" d="M733.598 733.599H677.531V789.666H733.598V733.599Z" stroke="#6D6D6D" stroke-width="0.5"/>
<path opacity="0.15" d="M789.665 733.599H733.599V789.666H789.665V733.599Z" stroke="#6D6D6D" stroke-width="0.5"/>
<path opacity="0.15" d="M845.734 733.599H789.667V789.666H845.734V733.599Z" stroke="#6D6D6D" stroke-width="0.5"/>
<path opacity="0.15" d="M901.799 733.599H845.732V789.666H901.799V733.599Z" stroke="#6D6D6D" stroke-width="0.5"/>
<path opacity="0.15" d="M957.866 733.599H901.799V789.666H957.866V733.599Z" stroke="#6D6D6D" stroke-width="0.5"/>
<path opacity="0.15" d="M1013.93 733.599H957.867V789.666H1013.93V733.599Z" stroke="#6D6D6D" stroke-width="0.5"/>
<path opacity="0.15" d="M1070 733.599H1013.93V789.666H1070V733.599Z" stroke="#6D6D6D" stroke-width="0.5"/>
<path opacity="0.15" d="M60.7978 789.666H4.73096V845.733H60.7978V789.666Z" stroke="#6D6D6D" stroke-width="0.5"/>
<path opacity="0.15" d="M116.864 789.666H60.7969V845.733H116.864V789.666Z" stroke="#6D6D6D" stroke-width="0.5"/>
<path opacity="0.15" d="M172.932 789.666H116.865V845.733H172.932V789.666Z" stroke="#6D6D6D" stroke-width="0.5"/>
<path opacity="0.15" d="M228.998 789.666H172.931V845.733H228.998V789.666Z" stroke="#6D6D6D" stroke-width="0.5"/>
<path opacity="0.15" d="M285.065 789.666H228.999V845.733H285.065V789.666Z" stroke="#6D6D6D" stroke-width="0.5"/>
<path opacity="0.15" d="M341.132 789.666H285.065V845.733H341.132V789.666Z" stroke="#6D6D6D" stroke-width="0.5"/>
<path opacity="0.15" d="M397.199 789.666H341.132V845.733H397.199V789.666Z" stroke="#6D6D6D" stroke-width="0.5"/>
<path opacity="0.15" d="M453.266 789.666H397.199V845.733H453.266V789.666Z" stroke="#6D6D6D" stroke-width="0.5"/>
<path opacity="0.15" d="M509.331 789.666H453.265V845.733H509.331V789.666Z" stroke="#6D6D6D" stroke-width="0.5"/>
<path opacity="0.15" d="M565.399 789.666H509.333V845.733H565.399V789.666Z" stroke="#6D6D6D" stroke-width="0.5"/>
<path opacity="0.15" d="M621.465 789.666H565.398V845.733H621.465V789.666Z" stroke="#6D6D6D" stroke-width="0.5"/>
<path opacity="0.15" d="M677.533 789.666H621.466V845.733H677.533V789.666Z" stroke="#6D6D6D" stroke-width="0.5"/>
<path opacity="0.15" d="M733.598 789.666H677.531V845.733H733.598V789.666Z" stroke="#6D6D6D" stroke-width="0.5"/>
<path opacity="0.15" d="M789.665 789.666H733.599V845.733H789.665V789.666Z" stroke="#6D6D6D" stroke-width="0.5"/>
<path opacity="0.15" d="M845.734 789.666H789.667V845.733H845.734V789.666Z" stroke="#6D6D6D" stroke-width="0.5"/>
<path opacity="0.15" d="M901.799 789.666H845.732V845.733H901.799V789.666Z" stroke="#6D6D6D" stroke-width="0.5"/>
<path opacity="0.15" d="M957.866 789.666H901.799V845.733H957.866V789.666Z" stroke="#6D6D6D" stroke-width="0.5"/>
<path opacity="0.15" d="M1013.93 789.666H957.867V845.733H1013.93V789.666Z" stroke="#6D6D6D" stroke-width="0.5"/>
<path opacity="0.15" d="M1070 789.666H1013.93V845.733H1070V789.666Z" stroke="#6D6D6D" stroke-width="0.5"/>
<path opacity="0.15" d="M60.7978 845.733H4.73096V901.799H60.7978V845.733Z" stroke="#6D6D6D" stroke-width="0.5"/>
<path opacity="0.15" d="M116.864 845.733H60.7969V901.799H116.864V845.733Z" stroke="#6D6D6D" stroke-width="0.5"/>
<path opacity="0.15" d="M172.932 845.733H116.865V901.799H172.932V845.733Z" stroke="#6D6D6D" stroke-width="0.5"/>
<path opacity="0.15" d="M228.998 845.733H172.931V901.799H228.998V845.733Z" stroke="#6D6D6D" stroke-width="0.5"/>
<path opacity="0.15" d="M285.065 845.733H228.999V901.799H285.065V845.733Z" stroke="#6D6D6D" stroke-width="0.5"/>
<path opacity="0.15" d="M341.132 845.733H285.065V901.799H341.132V845.733Z" stroke="#6D6D6D" stroke-width="0.5"/>
<path opacity="0.15" d="M397.199 845.733H341.132V901.799H397.199V845.733Z" stroke="#6D6D6D" stroke-width="0.5"/>
<path opacity="0.15" d="M453.266 845.733H397.199V901.799H453.266V845.733Z" stroke="#6D6D6D" stroke-width="0.5"/>
<path opacity="0.15" d="M509.331 845.733H453.265V901.799H509.331V845.733Z" stroke="#6D6D6D" stroke-width="0.5"/>
<path opacity="0.15" d="M565.399 845.733H509.333V901.799H565.399V845.733Z" stroke="#6D6D6D" stroke-width="0.5"/>
<path opacity="0.15" d="M621.465 845.733H565.398V901.799H621.465V845.733Z" stroke="#6D6D6D" stroke-width="0.5"/>
<path opacity="0.15" d="M677.533 845.733H621.466V901.799H677.533V845.733Z" stroke="#6D6D6D" stroke-width="0.5"/>
<path opacity="0.15" d="M733.598 845.733H677.531V901.799H733.598V845.733Z" stroke="#6D6D6D" stroke-width="0.5"/>
<path opacity="0.15" d="M789.665 845.733H733.599V901.799H789.665V845.733Z" stroke="#6D6D6D" stroke-width="0.5"/>
<path opacity="0.15" d="M845.734 845.733H789.667V901.799H845.734V845.733Z" stroke="#6D6D6D" stroke-width="0.5"/>
<path opacity="0.15" d="M901.799 845.733H845.732V901.799H901.799V845.733Z" stroke="#6D6D6D" stroke-width="0.5"/>
<path opacity="0.15" d="M957.866 845.733H901.799V901.799H957.866V845.733Z" stroke="#6D6D6D" stroke-width="0.5"/>
<path opacity="0.15" d="M1013.93 845.733H957.867V901.799H1013.93V845.733Z" stroke="#6D6D6D" stroke-width="0.5"/>
<path opacity="0.15" d="M1070 845.733H1013.93V901.799H1070V845.733Z" stroke="#6D6D6D" stroke-width="0.5"/>
<path opacity="0.15" d="M60.7978 901.799H4.73096V957.866H60.7978V901.799Z" stroke="#6D6D6D" stroke-width="0.5"/>
<path opacity="0.15" d="M116.864 901.799H60.7969V957.866H116.864V901.799Z" stroke="#6D6D6D" stroke-width="0.5"/>
<path opacity="0.15" d="M172.932 901.799H116.865V957.866H172.932V901.799Z" stroke="#6D6D6D" stroke-width="0.5"/>
<path opacity="0.15" d="M228.998 901.799H172.931V957.866H228.998V901.799Z" stroke="#6D6D6D" stroke-width="0.5"/>
<path opacity="0.15" d="M285.065 901.799H228.999V957.866H285.065V901.799Z" stroke="#6D6D6D" stroke-width="0.5"/>
<path opacity="0.15" d="M341.132 901.799H285.065V957.866H341.132V901.799Z" stroke="#6D6D6D" stroke-width="0.5"/>
<path opacity="0.15" d="M397.199 901.799H341.132V957.866H397.199V901.799Z" stroke="#6D6D6D" stroke-width="0.5"/>
<path opacity="0.15" d="M453.266 901.799H397.199V957.866H453.266V901.799Z" stroke="#6D6D6D" stroke-width="0.5"/>
<path opacity="0.15" d="M509.331 901.799H453.265V957.866H509.331V901.799Z" stroke="#6D6D6D" stroke-width="0.5"/>
<path opacity="0.15" d="M565.399 901.799H509.333V957.866H565.399V901.799Z" stroke="#6D6D6D" stroke-width="0.5"/>
<path opacity="0.15" d="M621.465 901.799H565.398V957.866H621.465V901.799Z" stroke="#6D6D6D" stroke-width="0.5"/>
<path opacity="0.15" d="M677.533 901.799H621.466V957.866H677.533V901.799Z" stroke="#6D6D6D" stroke-width="0.5"/>
<path opacity="0.15" d="M733.598 901.799H677.531V957.866H733.598V901.799Z" stroke="#6D6D6D" stroke-width="0.5"/>
<path opacity="0.15" d="M789.665 901.799H733.599V957.866H789.665V901.799Z" stroke="#6D6D6D" stroke-width="0.5"/>
<path opacity="0.15" d="M845.734 901.799H789.667V957.866H845.734V901.799Z" stroke="#6D6D6D" stroke-width="0.5"/>
<path opacity="0.15" d="M901.799 901.799H845.732V957.866H901.799V901.799Z" stroke="#6D6D6D" stroke-width="0.5"/>
<path opacity="0.15" d="M957.866 901.799H901.799V957.866H957.866V901.799Z" stroke="#6D6D6D" stroke-width="0.5"/>
<path opacity="0.15" d="M1013.93 901.799H957.867V957.866H1013.93V901.799Z" stroke="#6D6D6D" stroke-width="0.5"/>
<path opacity="0.15" d="M1070 901.799H1013.93V957.866H1070V901.799Z" stroke="#6D6D6D" stroke-width="0.5"/>
<path opacity="0.15" d="M60.7978 957.866H4.73096V1013.93H60.7978V957.866Z" stroke="#6D6D6D" stroke-width="0.5"/>
<path opacity="0.15" d="M116.864 957.866H60.7969V1013.93H116.864V957.866Z" stroke="#6D6D6D" stroke-width="0.5"/>
<path opacity="0.15" d="M172.932 957.866H116.865V1013.93H172.932V957.866Z" stroke="#6D6D6D" stroke-width="0.5"/>
<path opacity="0.15" d="M228.998 957.866H172.931V1013.93H228.998V957.866Z" stroke="#6D6D6D" stroke-width="0.5"/>
<path opacity="0.15" d="M285.065 957.866H228.999V1013.93H285.065V957.866Z" stroke="#6D6D6D" stroke-width="0.5"/>
<path opacity="0.15" d="M341.132 957.866H285.065V1013.93H341.132V957.866Z" stroke="#6D6D6D" stroke-width="0.5"/>
<path opacity="0.15" d="M397.199 957.866H341.132V1013.93H397.199V957.866Z" stroke="#6D6D6D" stroke-width="0.5"/>
<path opacity="0.15" d="M453.266 957.866H397.199V1013.93H453.266V957.866Z" stroke="#6D6D6D" stroke-width="0.5"/>
<path opacity="0.15" d="M509.331 957.866H453.265V1013.93H509.331V957.866Z" stroke="#6D6D6D" stroke-width="0.5"/>
<path opacity="0.15" d="M565.399 957.866H509.333V1013.93H565.399V957.866Z" stroke="#6D6D6D" stroke-width="0.5"/>
<path opacity="0.15" d="M621.465 957.866H565.398V1013.93H621.465V957.866Z" stroke="#6D6D6D" stroke-width="0.5"/>
<path opacity="0.15" d="M677.533 957.866H621.466V1013.93H677.533V957.866Z" stroke="#6D6D6D" stroke-width="0.5"/>
<path opacity="0.15" d="M733.598 957.866H677.531V1013.93H733.598V957.866Z" stroke="#6D6D6D" stroke-width="0.5"/>
<path opacity="0.15" d="M789.665 957.866H733.599V1013.93H789.665V957.866Z" stroke="#6D6D6D" stroke-width="0.5"/>
<path opacity="0.15" d="M845.734 957.866H789.667V1013.93H845.734V957.866Z" stroke="#6D6D6D" stroke-width="0.5"/>
<path opacity="0.15" d="M901.799 957.866H845.732V1013.93H901.799V957.866Z" stroke="#6D6D6D" stroke-width="0.5"/>
<path opacity="0.15" d="M957.866 957.866H901.799V1013.93H957.866V957.866Z" stroke="#6D6D6D" stroke-width="0.5"/>
<path opacity="0.15" d="M1013.93 957.866H957.867V1013.93H1013.93V957.866Z" stroke="#6D6D6D" stroke-width="0.5"/>
<path opacity="0.15" d="M1070 957.866H1013.93V1013.93H1070V957.866Z" stroke="#6D6D6D" stroke-width="0.5"/>
<path opacity="0.15" d="M60.7978 1013.93H4.73096V1070H60.7978V1013.93Z" stroke="#6D6D6D" stroke-width="0.5"/>
<path opacity="0.15" d="M116.864 1013.93H60.7969V1070H116.864V1013.93Z" stroke="#6D6D6D" stroke-width="0.5"/>
<path opacity="0.15" d="M172.932 1013.93H116.865V1070H172.932V1013.93Z" stroke="#6D6D6D" stroke-width="0.5"/>
<path opacity="0.15" d="M228.998 1013.93H172.931V1070H228.998V1013.93Z" stroke="#6D6D6D" stroke-width="0.5"/>
<path opacity="0.15" d="M285.065 1013.93H228.999V1070H285.065V1013.93Z" stroke="#6D6D6D" stroke-width="0.5"/>
<path opacity="0.15" d="M341.132 1013.93H285.065V1070H341.132V1013.93Z" stroke="#6D6D6D" stroke-width="0.5"/>
<path opacity="0.15" d="M397.199 1013.93H341.132V1070H397.199V1013.93Z" stroke="#6D6D6D" stroke-width="0.5"/>
<path opacity="0.15" d="M453.266 1013.93H397.199V1070H453.266V1013.93Z" stroke="#6D6D6D" stroke-width="0.5"/>
<path opacity="0.15" d="M509.331 1013.93H453.265V1070H509.331V1013.93Z" stroke="#6D6D6D" stroke-width="0.5"/>
<path opacity="0.15" d="M565.399 1013.93H509.333V1070H565.399V1013.93Z" stroke="#6D6D6D" stroke-width="0.5"/>
<path opacity="0.15" d="M621.465 1013.93H565.398V1070H621.465V1013.93Z" stroke="#6D6D6D" stroke-width="0.5"/>
<path opacity="0.15" d="M677.533 1013.93H621.466V1070H677.533V1013.93Z" stroke="#6D6D6D" stroke-width="0.5"/>
<path opacity="0.15" d="M733.598 1013.93H677.531V1070H733.598V1013.93Z" stroke="#6D6D6D" stroke-width="0.5"/>
<path opacity="0.15" d="M789.665 1013.93H733.599V1070H789.665V1013.93Z" stroke="#6D6D6D" stroke-width="0.5"/>
<path opacity="0.15" d="M845.734 1013.93H789.667V1070H845.734V1013.93Z" stroke="#6D6D6D" stroke-width="0.5"/>
<path opacity="0.15" d="M901.799 1013.93H845.732V1070H901.799V1013.93Z" stroke="#6D6D6D" stroke-width="0.5"/>
<path opacity="0.15" d="M957.866 1013.93H901.799V1070H957.866V1013.93Z" stroke="#6D6D6D" stroke-width="0.5"/>
<path opacity="0.15" d="M1013.93 1013.93H957.867V1070H1013.93V1013.93Z" stroke="#6D6D6D" stroke-width="0.5"/>
<path opacity="0.15" d="M1070 1013.93H1013.93V1070H1070V1013.93Z" stroke="#6D6D6D" stroke-width="0.5"/>
</svg>
