<svg width="198" height="12" viewBox="0 0 198 12" fill="none" xmlns="http://www.w3.org/2000/svg">
<path d="M4 10C6.20914 10 8 8.20914 8 6C8 3.79086 6.20914 2 4 2C1.79086 2 -1.93129e-07 3.79086 0 6C1.93129e-07 8.20914 1.79086 10 4 10ZM197.53 6.53031C197.823 6.23742 197.823 5.76255 197.53 5.46965L192.757 0.696683C192.464 0.403789 191.99 0.403789 191.697 0.696683C191.404 0.989576 191.404 1.46445 191.697 1.75734L195.939 5.99998L191.697 10.2426C191.404 10.5355 191.404 11.0104 191.697 11.3033C191.99 11.5962 192.464 11.5962 192.757 11.3033L197.53 6.53031ZM4 6.75L197 6.74998L197 5.24998L4 5.25L4 6.75Z" fill="url(#paint0_linear_674_4780)"/>
<defs>
<linearGradient id="paint0_linear_674_4780" x1="4" y1="5.5" x2="194.088" y2="5.49998" gradientUnits="userSpaceOnUse">
<stop stop-color="#9A4BFF"/>
<stop offset="1" stop-color="#7FD85F"/>
</linearGradient>
</defs>
</svg>
