<svg width="268" height="127" viewBox="0 0 268 127" fill="none" xmlns="http://www.w3.org/2000/svg">
<path d="M7.64645 126.354C7.84171 126.549 8.15829 126.549 8.35355 126.354L11.5355 123.172C11.7308 122.976 11.7308 122.66 11.5355 122.464C11.3403 122.269 11.0237 122.269 10.8284 122.464L8 125.293L5.17157 122.464C4.97631 122.269 4.65973 122.269 4.46447 122.464C4.2692 122.66 4.2692 122.976 4.46447 123.172L7.64645 126.354ZM266.5 126C266.5 126.276 266.724 126.5 267 126.5C267.276 126.5 267.5 126.276 267.5 126H266.5ZM8.60141 121.017L8.62179 120.518L7.62262 120.477L7.60224 120.977L8.60141 121.017ZM8.42205 110.975L8.36072 111.472L9.35317 111.594L9.4145 111.098L8.42205 110.975ZM11.0417 101.285L11.1438 100.795L10.1649 100.591L10.0628 101.08L11.0417 101.285ZM12.519 91.3478L12.3766 91.8271L13.3352 92.1117L13.4776 91.6324L12.519 91.3478ZM16.7017 82.2194L16.883 81.7534L15.9512 81.3907L15.7698 81.8566L16.7017 82.2194ZM19.7906 72.6631L19.5717 73.1127L20.4707 73.5505L20.6897 73.101L19.7906 72.6631ZM25.4078 64.3377L25.6625 63.9074L24.8019 63.3981L24.5473 63.8284L25.4078 64.3377ZM30.0006 55.4068L29.7122 55.8153L30.5292 56.392L30.8175 55.9836L30.0006 55.4068ZM36.8771 48.0869L37.197 47.7026L36.4284 47.0629L36.1085 47.4472L36.8771 48.0869ZM42.8252 39.9951L42.4762 40.3531L43.1921 41.0512L43.5412 40.6932L42.8252 39.9951ZM50.7646 33.8418L51.1405 33.5121L50.4811 32.7603L50.1052 33.09L50.7646 33.8418ZM57.8962 26.7725L57.496 27.0722L58.0953 27.8727L58.4956 27.573L57.8962 26.7725ZM66.6884 21.9174L67.1105 21.6494L66.5744 20.8052L66.1523 21.0733L66.6884 21.9174ZM74.8217 16.0237L74.3804 16.2586L74.8502 17.1414L75.2916 16.9064L74.8217 16.0237ZM84.2499 12.5686L84.7079 12.368L84.3067 11.452L83.8487 11.6526L84.2499 12.5686ZM93.1871 7.97983L92.7152 8.145L93.0456 9.08886L93.5175 8.92369L93.1871 7.97983ZM103.029 5.99453L103.512 5.86556L103.254 4.8994L102.771 5.02837L103.029 5.99453ZM112.555 2.80828L112.063 2.90048L112.248 3.88333L112.739 3.79113L112.555 2.80828ZM122.585 2.32314L123.082 2.26793L122.972 1.27405L122.475 1.32926L122.585 2.32314ZM132.478 0.591943L131.978 0.610268L132.015 1.6096L132.514 1.59127L132.478 0.591943ZM142.486 1.59127L142.985 1.6096L143.022 0.610268L142.522 0.591943L142.486 1.59127ZM152.525 1.32926L152.028 1.27405L151.918 2.26793L152.415 2.32314L152.525 1.32926ZM162.261 3.79113L162.752 3.88333L162.937 2.90048L162.445 2.80828L162.261 3.79113ZM172.229 5.02837L171.746 4.8994L171.488 5.86556L171.971 5.99453L172.229 5.02837ZM181.483 8.92368L181.954 9.08886L182.285 8.145L181.813 7.97982L181.483 8.92368ZM191.151 11.6526L190.693 11.452L190.292 12.368L190.75 12.5686L191.151 11.6526ZM199.708 16.9064L200.15 17.1413L200.62 16.2586L200.178 16.0237L199.708 16.9064ZM208.848 21.0732L208.426 20.8052L207.89 21.6494L208.312 21.9174L208.848 21.0732ZM216.504 27.573L216.905 27.8727L217.504 27.0722L217.104 26.7725L216.504 27.573ZM224.895 33.09L224.519 32.7603L223.859 33.5121L224.235 33.8418L224.895 33.09ZM231.459 40.6932L231.808 41.0512L232.524 40.353L232.175 39.995L231.459 40.6932ZM238.891 47.4472L238.572 47.0629L237.803 47.7026L238.123 48.0869L238.891 47.4472ZM244.182 55.9835L244.471 56.392L245.288 55.8153L244.999 55.4068L244.182 55.9835ZM250.453 63.8284L250.198 63.3981L249.337 63.9074L249.592 64.3377L250.453 63.8284ZM254.31 73.101L254.529 73.5505L255.428 73.1126L255.209 72.6631L254.31 73.101ZM259.23 81.8566L259.049 81.3907L258.117 81.7534L258.298 82.2194L259.23 81.8566ZM261.522 91.6324L261.665 92.1117L262.623 91.8271L262.481 91.3478L261.522 91.6324ZM264.937 101.08L264.835 100.591L263.856 100.795L263.958 101.285L264.937 101.08ZM265.586 111.098L265.647 111.594L266.639 111.472L266.578 110.975L265.586 111.098ZM267.398 120.977L267.377 120.477L266.378 120.518L266.399 121.017L267.398 120.977ZM8.5 126C8.5 124.331 8.53402 122.67 8.60141 121.017L7.60224 120.977C7.53429 122.643 7.5 124.318 7.5 126H8.5ZM9.4145 111.098C9.82393 107.785 10.3681 104.512 11.0417 101.285L10.0628 101.08C9.38362 104.335 8.83488 107.635 8.42205 110.975L9.4145 111.098ZM13.4776 91.6324C14.4255 88.4404 15.5021 85.3009 16.7017 82.2194L15.7698 81.8566C14.5603 84.9636 13.4747 88.1292 12.519 91.3478L13.4776 91.6324ZM20.6897 73.101C22.1449 70.1131 23.7196 67.1901 25.4078 64.3377L24.5473 63.8284C22.8453 66.7039 21.2578 69.6508 19.7906 72.6631L20.6897 73.101ZM30.8175 55.9836C32.7313 53.2728 34.7532 50.6386 36.8771 48.0869L36.1085 47.4472C33.9677 50.0191 31.9297 52.6743 30.0006 55.4068L30.8175 55.9836ZM43.5412 40.6932C45.8555 38.3198 48.2653 36.0341 50.7646 33.8418L50.1052 33.09C47.5863 35.2995 45.1577 37.6031 42.8252 39.9951L43.5412 40.6932ZM58.4956 27.573C61.1461 25.5885 63.879 23.7014 66.6884 21.9174L66.1523 21.0733C63.3213 22.871 60.5673 24.7726 57.8962 26.7725L58.4956 27.573ZM75.2916 16.9064C78.2105 15.3528 81.1984 13.905 84.2499 12.5686L83.8487 11.6526C80.7739 12.9993 77.7631 14.4581 74.8217 16.0237L75.2916 16.9064ZM93.5175 8.92369C96.6337 7.83301 99.8059 6.85493 103.029 5.99453L102.771 5.02837C99.5235 5.8953 96.3271 6.88083 93.1871 7.97983L93.5175 8.92369ZM112.739 3.79113C115.979 3.18317 119.263 2.69226 122.585 2.32314L122.475 1.32926C119.128 1.70114 115.819 2.19573 112.555 2.80828L112.739 3.79113ZM132.514 1.59127C134.168 1.53061 135.83 1.5 137.5 1.5V0.5C135.818 0.5 134.144 0.530832 132.478 0.591943L132.514 1.59127ZM137.5 1.5C139.17 1.5 140.832 1.53061 142.486 1.59127L142.522 0.591943C140.856 0.530832 139.182 0.5 137.5 0.5V1.5ZM152.415 2.32314C155.737 2.69226 159.021 3.18317 162.261 3.79113L162.445 2.80828C159.181 2.19573 155.872 1.70114 152.525 1.32926L152.415 2.32314ZM171.971 5.99453C175.194 6.85493 178.366 7.83301 181.483 8.92368L181.813 7.97982C178.673 6.88083 175.477 5.8953 172.229 5.02837L171.971 5.99453ZM190.75 12.5686C193.802 13.905 196.789 15.3527 199.708 16.9064L200.178 16.0237C197.237 14.4581 194.226 12.9993 191.151 11.6526L190.75 12.5686ZM208.312 21.9174C211.121 23.7014 213.854 25.5884 216.504 27.573L217.104 26.7725C214.433 24.7726 211.679 22.871 208.848 21.0732L208.312 21.9174ZM224.235 33.8418C226.735 36.0341 229.144 38.3198 231.459 40.6932L232.175 39.995C229.842 37.603 227.414 35.2994 224.895 33.09L224.235 33.8418ZM238.123 48.0869C240.247 50.6386 242.269 53.2727 244.182 55.9835L244.999 55.4068C243.07 52.6742 241.032 50.0191 238.891 47.4472L238.123 48.0869ZM249.592 64.3377C251.28 67.1901 252.855 70.1131 254.31 73.101L255.209 72.6631C253.742 69.6507 252.155 66.7039 250.453 63.8284L249.592 64.3377ZM258.298 82.2194C259.498 85.3009 260.575 88.4404 261.522 91.6324L262.481 91.3478C261.525 88.1292 260.44 84.9636 259.23 81.8566L258.298 82.2194ZM263.958 101.285C264.632 104.512 265.176 107.785 265.586 111.098L266.578 110.975C266.165 107.635 265.616 104.335 264.937 101.08L263.958 101.285ZM266.399 121.017C266.466 122.67 266.5 124.331 266.5 126H267.5C267.5 124.318 267.466 122.643 267.398 120.977L266.399 121.017ZM7.29289 126.707C7.68342 127.098 8.31658 127.098 8.70711 126.707L15.0711 120.343C15.4616 119.953 15.4616 119.319 15.0711 118.929C14.6805 118.538 14.0474 118.538 13.6569 118.929L8 124.586L2.34315 118.929C1.95262 118.538 1.31946 118.538 0.928932 118.929C0.538408 119.319 0.538408 119.953 0.928932 120.343L7.29289 126.707ZM266 126C266 126.552 266.448 127 267 127C267.552 127 268 126.552 268 126H266ZM9.101 121.038L9.14174 120.039L7.1434 119.957L7.10266 120.956L9.101 121.038ZM7.92583 110.914L7.80317 111.906L9.78807 112.152L9.91073 111.159L7.92583 110.914ZM11.5312 101.387L11.7354 100.408L9.77762 99.9993L9.57333 100.978L11.5312 101.387ZM12.0396 91.2054L11.755 92.1641L13.6722 92.7334L13.9569 91.7748L12.0396 91.2054ZM17.1676 82.4008L17.5304 81.4689L15.6666 80.7433L15.3038 81.6752L17.1676 82.4008ZM19.3411 72.4442L18.9032 73.3433L20.7013 74.219L21.1392 73.32L19.3411 72.4442ZM25.8381 64.5924L26.3475 63.7318L24.6263 62.7131L24.117 63.5737L25.8381 64.5924ZM29.5921 55.1185L29.0154 55.9354L30.6493 57.0889L31.226 56.2719L29.5921 55.1185ZM37.2614 48.4068L37.9011 47.6382L36.364 46.3587L35.7242 47.1273L37.2614 48.4068ZM42.4673 39.646L41.7691 40.362L43.2011 41.7582L43.8992 41.0423L42.4673 39.646ZM51.0943 34.2177L51.8461 33.5583L50.5272 32.0547L49.7755 32.7142L51.0943 34.2177ZM57.5965 26.3723L56.7961 26.9716L57.9948 28.5726L58.7953 27.9732L57.5965 26.3723ZM66.9564 22.3395L67.8006 21.8035L66.7285 20.1151L65.8843 20.6512L66.9564 22.3395ZM74.5868 15.5823L73.7041 16.0522L74.6438 17.8177L75.5265 17.3478L74.5868 15.5823ZM84.4504 13.0266L85.3664 12.6254L84.5641 10.7934L83.6481 11.1946L84.4504 13.0266ZM93.022 7.5079L92.0781 7.83824L92.7388 9.72596L93.6827 9.39561L93.022 7.5079ZM103.158 6.47761L104.124 6.21967L103.608 4.28735L102.642 4.54529L103.158 6.47761ZM112.462 2.31685L111.48 2.50126L111.848 4.46696L112.831 4.28255L112.462 2.31685ZM122.64 2.82009L123.634 2.70966L123.413 0.721889L122.419 0.832318L122.64 2.82009ZM132.459 0.0922787L131.46 0.128928L131.533 2.12758L132.533 2.09093L132.459 0.0922787ZM142.467 2.09094L143.467 2.12758L143.54 0.128929L142.541 0.0922787L142.467 2.09094ZM152.581 0.832318L151.587 0.721889L151.366 2.70966L152.36 2.82009L152.581 0.832318ZM162.169 4.28255L163.152 4.46696L163.52 2.50126L162.538 2.31685L162.169 4.28255ZM172.358 4.54529L171.392 4.28735L170.876 6.21967L171.842 6.47761L172.358 4.54529ZM181.317 9.39561L182.261 9.72596L182.922 7.83824L181.978 7.50789L181.317 9.39561ZM191.352 11.1946L190.436 10.7934L189.634 12.6254L190.55 13.0266L191.352 11.1946ZM199.473 17.3478L200.356 17.8176L201.296 16.0522L200.413 15.5823L199.473 17.3478ZM209.116 20.6512L208.271 20.1151L207.199 21.8035L208.044 22.3395L209.116 20.6512ZM216.205 27.9732L217.005 28.5726L218.204 26.9716L217.403 26.3723L216.205 27.9732ZM225.225 32.7141L224.473 32.0547L223.154 33.5583L223.906 34.2177L225.225 32.7141ZM231.101 41.0423L231.799 41.7582L233.231 40.3619L232.533 39.646L231.101 41.0423ZM239.276 47.1273L238.636 46.3587L237.099 47.6382L237.739 48.4068L239.276 47.1273ZM243.774 56.2719L244.351 57.0888L245.985 55.9354L245.408 55.1184L243.774 56.2719ZM250.883 63.5737L250.374 62.7131L248.653 63.7318L249.162 64.5924L250.883 63.5737ZM253.861 73.3199L254.299 74.219L256.097 73.3432L255.659 72.4442L253.861 73.3199ZM259.696 81.6752L259.333 80.7433L257.47 81.4689L257.832 82.4008L259.696 81.6752ZM261.043 91.7748L261.328 92.7334L263.245 92.1641L262.96 91.2054L261.043 91.7748ZM265.427 100.978L265.222 99.9993L263.265 100.408L263.469 101.387L265.427 100.978ZM265.089 111.159L265.212 112.152L267.197 111.907L267.074 110.914L265.089 111.159ZM267.897 120.956L267.857 119.957L265.858 120.039L265.899 121.038L267.897 120.956ZM9 126C9 124.338 9.03388 122.684 9.101 121.038L7.10266 120.956C7.03443 122.629 7 124.311 7 126H9ZM9.91073 111.159C10.3185 107.86 10.8604 104.601 11.5312 101.387L9.57333 100.978C8.89136 104.246 8.34035 107.56 7.92583 110.914L9.91073 111.159ZM13.9569 91.7748C14.9008 88.596 15.973 85.4695 17.1676 82.4008L15.3038 81.6752C14.0894 84.795 12.9993 87.9736 12.0396 91.2054L13.9569 91.7748ZM21.1392 73.32C22.5884 70.3443 24.1567 67.4332 25.8381 64.5924L24.117 63.5737C22.4082 66.4608 20.8142 69.4196 19.3411 72.4442L21.1392 73.32ZM31.226 56.2719C33.1321 53.572 35.1459 50.9484 37.2614 48.4068L35.7242 47.1273C33.575 49.7094 31.529 52.375 29.5921 55.1185L31.226 56.2719ZM43.8992 41.0423C46.2044 38.6782 48.6047 36.4015 51.0943 34.2177L49.7755 32.7142C47.2469 34.9321 44.8088 37.2447 42.4673 39.646L43.8992 41.0423ZM58.7953 27.9732C61.4355 25.9964 64.1578 24.1166 66.9564 22.3395L65.8843 20.6512C63.0424 22.4558 60.2779 24.3647 57.5965 26.3723L58.7953 27.9732ZM75.5265 17.3478C78.4342 15.8001 81.4107 14.3579 84.4504 13.0266L83.6481 11.1946C80.5616 12.5464 77.5393 14.0108 74.5868 15.5823L75.5265 17.3478ZM93.6827 9.39561C96.787 8.3091 99.9471 7.33474 103.158 6.47761L102.642 4.54529C99.3823 5.41549 96.1739 6.40474 93.022 7.5079L93.6827 9.39561ZM112.831 4.28255C116.059 3.67689 119.331 3.18782 122.64 2.82009L122.419 0.832318C119.06 1.20557 115.739 1.70201 112.462 2.31685L112.831 4.28255ZM132.533 2.09093C134.181 2.0305 135.837 2 137.5 2V0C135.812 0 134.132 0.0309436 132.459 0.0922787L132.533 2.09093ZM137.5 2C139.163 2 140.819 2.0305 142.467 2.09094L142.541 0.0922787C140.868 0.0309436 139.188 0 137.5 0V2ZM152.36 2.82009C155.669 3.18782 158.941 3.67689 162.169 4.28255L162.538 2.31685C159.261 1.70201 155.94 1.20557 152.581 0.832318L152.36 2.82009ZM171.842 6.47761C175.053 7.33474 178.213 8.3091 181.317 9.39561L181.978 7.50789C178.826 6.40474 175.618 5.41549 172.358 4.54529L171.842 6.47761ZM190.55 13.0266C193.589 14.3579 196.566 15.8001 199.473 17.3478L200.413 15.5823C197.461 14.0107 194.438 12.5464 191.352 11.1946L190.55 13.0266ZM208.044 22.3395C210.842 24.1166 213.564 25.9964 216.205 27.9732L217.403 26.3723C214.722 24.3646 211.958 22.4557 209.116 20.6512L208.044 22.3395ZM223.906 34.2177C226.395 36.4015 228.796 38.6782 231.101 41.0423L232.533 39.646C230.191 37.2446 227.753 34.9321 225.225 32.7141L223.906 34.2177ZM237.739 48.4068C239.854 50.9483 241.868 53.572 243.774 56.2719L245.408 55.1184C243.471 52.375 241.425 49.7093 239.276 47.1273L237.739 48.4068ZM249.162 64.5924C250.843 67.4332 252.412 70.3443 253.861 73.3199L255.659 72.4442C254.186 69.4196 252.592 66.4608 250.883 63.5737L249.162 64.5924ZM257.832 82.4008C259.027 85.4695 260.099 88.596 261.043 91.7748L262.96 91.2054C262.001 87.9736 260.911 84.795 259.696 81.6752L257.832 82.4008ZM263.469 101.387C264.14 104.601 264.682 107.86 265.089 111.159L267.074 110.914C266.66 107.56 266.109 104.246 265.427 100.978L263.469 101.387ZM265.899 121.038C265.966 122.684 266 124.338 266 126H268C268 124.311 267.966 122.629 267.897 120.956L265.899 121.038Z" fill="url(#paint0_linear_674_4783)"/>
<defs>
<linearGradient id="paint0_linear_674_4783" x1="8" y1="1" x2="267" y2="1" gradientUnits="userSpaceOnUse">
<stop stop-color="#9A4BFF"/>
<stop offset="1" stop-color="#7FD85F"/>
</linearGradient>
</defs>
</svg>
