<svg width="494" height="205" viewBox="0 0 494 205" fill="none" xmlns="http://www.w3.org/2000/svg">
<path d="M7.64645 204.354C7.84171 204.549 8.15829 204.549 8.35355 204.354L11.5355 201.172C11.7308 200.976 11.7308 200.66 11.5355 200.464C11.3403 200.269 11.0237 200.269 10.8284 200.464L8 203.293L5.17157 200.464C4.97631 200.269 4.65973 200.269 4.46447 200.464C4.2692 200.66 4.2692 200.976 4.46447 201.172L7.64645 204.354ZM492.5 204C492.5 204.276 492.724 204.5 493 204.5C493.276 204.5 493.5 204.276 493.5 204H492.5ZM8.56859 199.131L8.58269 198.631L7.58309 198.603L7.56899 199.102L8.56859 199.131ZM8.11965 189.354L8.07734 189.852L9.07376 189.937L9.11606 189.439L8.11965 189.354ZM10.2113 179.793L10.2817 179.298L9.29172 179.157L9.22124 179.652L10.2113 179.793ZM10.8707 170.028L10.7724 170.518L11.7528 170.715L11.8512 170.225L10.8707 170.028ZM14.0286 160.764L14.1544 160.28L13.1866 160.028L13.0608 160.512L14.0286 160.764ZM15.7802 151.133L15.6276 151.61L16.58 151.915L16.7325 151.438L15.7802 151.133ZM19.9483 142.276L20.1267 141.809L19.1926 141.452L19.0141 141.919L19.9483 142.276ZM22.7452 132.895L22.5418 133.352L23.4553 133.758L23.6587 133.302L22.7452 132.895ZM27.8441 124.537L28.0714 124.092L27.1807 123.637L26.9534 124.083L27.8441 124.537ZM31.6174 115.503L31.3673 115.936L32.2333 116.436L32.4833 116.003L31.6174 115.503ZM37.5535 107.718L37.8251 107.298L36.9856 106.755L36.7139 107.174L37.5535 107.718ZM42.2191 99.1128L41.9271 99.5186L42.7388 100.103L43.0308 99.6969L42.2191 99.1128ZM48.8929 91.9523L49.2042 91.561L48.4215 90.9385L48.1103 91.3298L48.8929 91.9523ZM54.3643 83.8363L54.035 84.2126L54.7876 84.8711L55.1168 84.4948L54.3643 83.8363ZM61.6801 77.3333L62.0262 76.9725L61.3046 76.2802L60.9585 76.641L61.6801 77.3333ZM67.871 69.7514L67.5091 70.0965L68.1991 70.8203L68.561 70.4753L67.871 69.7514ZM75.7384 63.9267L76.115 63.5978L75.4572 62.8446L75.0806 63.1735L75.7384 63.9267ZM82.5671 56.9121L82.1768 57.2247L82.8019 58.0052L83.1922 57.6926L82.5671 56.9121ZM90.903 51.7771L91.306 51.4811L90.7139 50.6752L90.311 50.9712L90.903 51.7771ZM98.2937 45.3541L97.879 45.6334L98.4378 46.4628L98.8524 46.1834L98.2937 45.3541ZM107.023 40.9142L107.448 40.6516L106.923 39.8006L106.498 40.0632L107.023 40.9142ZM114.906 35.1006L114.471 35.3462L114.962 36.2172L115.397 35.9715L114.906 35.1006ZM123.951 31.3621L124.395 31.1333L123.938 30.2441L123.493 30.4728L123.951 31.3621ZM132.249 26.1771L131.796 26.3888L132.22 27.2948L132.673 27.0831L132.249 26.1771ZM141.551 23.1343L142.012 22.9396L141.623 22.0185L141.162 22.2131L141.551 23.1343ZM150.217 18.5815L149.75 18.7591L150.105 19.6939L150.573 19.5163L150.217 18.5815ZM159.723 16.2297L160.196 16.0692L159.875 15.1221L159.402 15.2826L159.723 16.2297ZM168.702 12.3166L168.223 12.4599L168.509 13.4179L168.988 13.2746L168.702 12.3166ZM178.356 10.6515L178.84 10.5252L178.587 9.5576L178.104 9.68387L178.356 10.6515ZM187.578 7.38811L187.09 7.49734L187.308 8.47319L187.796 8.36396L187.578 7.38811ZM197.313 6.40651L197.805 6.31428L197.62 5.33144L197.129 5.42367L197.313 6.40651ZM206.746 3.78983L206.252 3.8651L206.402 4.8537L206.897 4.77844L206.746 3.78983ZM216.535 3.47886L217.032 3.4205L216.915 2.42734L216.418 2.4857L216.535 3.47886ZM226.135 1.51017L225.637 1.55171L225.72 2.54825L226.218 2.50671L226.135 1.51017ZM235.912 1.8619L236.411 1.83705L236.361 0.838288L235.862 0.863135L235.912 1.8619ZM245.605 0.540468L245.105 0.54874L245.121 1.5486L245.621 1.54033L245.605 0.540468ZM255.379 1.54033L255.878 1.5486L255.895 0.548739L255.395 0.540466L255.379 1.54033ZM265.138 0.863131L264.639 0.838284L264.589 1.83705L265.088 1.8619L265.138 0.863131ZM274.782 2.5067L275.28 2.54824L275.363 1.5517L274.865 1.51016L274.782 2.5067ZM284.582 2.48569L284.085 2.42733L283.968 3.42049L284.465 3.47886L284.582 2.48569ZM294.103 4.77843L294.598 4.85369L294.748 3.86509L294.254 3.78982L294.103 4.77843ZM303.871 5.42365L303.38 5.33143L303.195 6.31427L303.687 6.4065L303.871 5.42365ZM313.204 8.36395L313.692 8.47318L313.91 7.49733L313.422 7.3881L313.204 8.36395ZM322.896 9.68386L322.413 9.55759L322.16 10.5252L322.644 10.6514L322.896 9.68386ZM332.011 13.2746L332.49 13.4179L332.777 12.4599L332.298 12.3165L332.011 13.2746ZM341.598 15.2825L341.125 15.1221L340.804 16.0692L341.277 16.2296L341.598 15.2825ZM350.427 19.5163L350.895 19.6939L351.25 18.759L350.782 18.5815L350.427 19.5163ZM359.838 22.2131L359.377 22.0185L358.988 22.9396L359.448 23.1342L359.838 22.2131ZM368.327 27.083L368.78 27.2947L369.204 26.3888L368.751 26.1771L368.327 27.083ZM377.507 30.4728L377.062 30.2441L376.605 31.1333L377.049 31.362L377.507 30.4728ZM385.603 35.9715L386.038 36.2172L386.529 35.3462L386.094 35.1005L385.603 35.9715ZM394.502 40.0631L394.077 39.8005L393.552 40.6516L393.977 40.9141L394.502 40.0631ZM402.147 46.1834L402.562 46.4627L403.121 45.6334L402.706 45.354L402.147 46.1834ZM410.689 50.9712L410.286 50.6751L409.694 51.481L410.097 51.7771L410.689 50.9712ZM417.808 57.6926L418.198 58.0051L418.823 57.2246L418.433 56.9121L417.808 57.6926ZM425.919 63.1735L425.543 62.8446L424.885 63.5977L425.262 63.9266L425.919 63.1735ZM432.439 70.4752L432.801 70.8202L433.491 70.0964L433.129 69.7514L432.439 70.4752ZM440.041 76.641L439.695 76.2802L438.974 76.9724L439.32 77.3333L440.041 76.641ZM445.883 84.4947L446.212 84.871L446.965 84.2125L446.636 83.8362L445.883 84.4947ZM452.89 91.3298L452.578 90.9385L451.796 91.5609L452.107 91.9522L452.89 91.3298ZM457.969 99.6968L458.261 100.103L459.073 99.5186L458.781 99.1127L457.969 99.6968ZM464.286 107.174L464.014 106.755L463.175 107.298L463.447 107.718L464.286 107.174ZM468.517 116.003L468.767 116.436L469.633 115.936L469.383 115.503L468.517 116.003ZM474.047 124.083L473.819 123.637L472.929 124.092L473.156 124.537L474.047 124.083ZM477.341 133.302L477.545 133.758L478.458 133.351L478.255 132.895L477.341 133.302ZM481.986 141.919L481.807 141.452L480.873 141.809L481.052 142.276L481.986 141.919ZM484.267 151.438L484.42 151.915L485.372 151.609L485.22 151.133L484.267 151.438ZM487.939 160.512L487.813 160.028L486.846 160.28L486.971 160.764L487.939 160.512ZM489.149 170.225L489.247 170.715L490.228 170.518L490.129 170.028L489.149 170.225ZM491.779 179.652L491.708 179.157L490.718 179.298L490.789 179.793L491.779 179.652ZM491.884 189.439L491.926 189.937L492.923 189.852L492.88 189.354L491.884 189.439ZM493.431 199.102L493.417 198.603L492.417 198.631L492.431 199.131L493.431 199.102ZM8.5 204C8.5 202.372 8.52295 200.749 8.56859 199.131L7.56899 199.102C7.52308 200.73 7.5 202.363 7.5 204H8.5ZM9.11606 189.439C9.39092 186.202 9.7567 182.986 10.2113 179.793L9.22124 179.652C8.76402 182.864 8.39611 186.098 8.11965 189.354L9.11606 189.439ZM11.8512 170.225C12.4892 167.045 13.2157 163.891 14.0286 160.764L13.0608 160.512C12.2432 163.658 11.5124 166.83 10.8707 170.028L11.8512 170.225ZM16.7325 151.438C17.7203 148.355 18.793 145.3 19.9483 142.276L19.0141 141.919C17.8524 144.96 16.7736 148.032 15.7802 151.133L16.7325 151.438ZM23.6587 133.302C24.9744 130.347 26.3703 127.425 27.8441 124.537L26.9534 124.083C25.4717 126.986 24.0682 129.924 22.7452 132.895L23.6587 133.302ZM32.4833 116.003C34.0994 113.205 35.7901 110.443 37.5535 107.718L36.7139 107.174C34.9415 109.913 33.242 112.69 31.6174 115.503L32.4833 116.003ZM43.0308 99.6969C44.9166 97.0762 46.8713 94.4941 48.8929 91.9523L48.1103 91.3298C46.0788 93.884 44.1144 96.4789 42.2191 99.1128L43.0308 99.6969ZM55.1168 84.4948C57.2421 82.066 59.4305 79.6783 61.6801 77.3333L60.9585 76.641C58.6984 78.9969 56.4997 81.3959 54.3643 83.8363L55.1168 84.4948ZM68.561 70.4753C70.8966 68.2487 73.2897 66.0653 75.7384 63.9267L75.0806 63.1735C72.6211 65.3216 70.2172 67.5148 67.871 69.7514L68.561 70.4753ZM83.1922 57.6926C85.7111 55.6752 88.282 53.7029 90.903 51.7771L90.311 50.9712C87.6787 52.9051 85.0968 54.886 82.5671 56.9121L83.1922 57.6926ZM98.8524 46.1834C101.53 44.3798 104.254 42.6229 107.023 40.9142L106.498 40.0632C103.717 41.7788 100.982 43.543 98.2937 45.3541L98.8524 46.1834ZM115.397 35.9715C118.207 34.3865 121.059 32.8496 123.951 31.3621L123.493 30.4728C120.59 31.9662 117.727 33.5092 114.906 35.1006L115.397 35.9715ZM132.673 27.0831C135.595 25.7171 138.556 24.4004 141.551 23.1343L141.162 22.2131C138.155 23.4841 135.183 24.8059 132.249 26.1771L132.673 27.0831ZM150.573 19.5163C153.59 18.37 156.641 17.2741 159.723 16.2297L159.402 15.2826C156.308 16.3308 153.246 17.4309 150.217 18.5815L150.573 19.5163ZM168.988 13.2746C172.082 12.3486 175.205 11.4738 178.356 10.6515L178.104 9.68387C174.941 10.5092 171.807 11.3872 168.702 12.3166L168.988 13.2746ZM187.796 8.36396C190.944 7.65932 194.117 7.00645 197.313 6.40651L197.129 5.42367C193.921 6.02574 190.736 6.68094 187.578 7.38811L187.796 8.36396ZM206.897 4.77844C210.088 4.2925 213.301 3.85894 216.535 3.47886L216.418 2.4857C213.173 2.86711 209.949 3.30219 206.746 3.78983L206.897 4.77844ZM226.218 2.50671C229.431 2.23883 232.663 2.02355 235.912 1.8619L235.862 0.863135C232.602 1.02534 229.359 1.24137 226.135 1.51017L226.218 2.50671ZM245.621 1.54033C247.244 1.51349 248.87 1.5 250.5 1.5V0.5C248.864 0.5 247.233 0.513531 245.605 0.540468L245.621 1.54033ZM250.5 1.5C252.13 1.5 253.756 1.51349 255.379 1.54033L255.395 0.540466C253.767 0.513531 252.136 0.5 250.5 0.5V1.5ZM265.088 1.8619C268.337 2.02355 271.569 2.23883 274.782 2.5067L274.865 1.51016C271.641 1.24136 268.398 1.02533 265.138 0.863131L265.088 1.8619ZM284.465 3.47886C287.699 3.85894 290.912 4.29249 294.103 4.77843L294.254 3.78982C291.051 3.30218 287.827 2.8671 284.582 2.48569L284.465 3.47886ZM303.687 6.4065C306.883 7.00643 310.056 7.6593 313.204 8.36395L313.422 7.3881C310.263 6.68093 307.079 6.02573 303.871 5.42365L303.687 6.4065ZM322.644 10.6514C325.794 11.4738 328.918 12.3486 332.011 13.2746L332.298 12.3165C329.193 11.3872 326.058 10.5092 322.896 9.68386L322.644 10.6514ZM341.277 16.2296C344.359 17.274 347.41 18.37 350.427 19.5163L350.782 18.5815C347.754 17.4309 344.692 16.3308 341.598 15.2825L341.277 16.2296ZM359.448 23.1342C362.444 24.4004 365.404 25.7171 368.327 27.083L368.751 26.1771C365.817 24.8059 362.845 23.4841 359.838 22.2131L359.448 23.1342ZM377.049 31.362C379.941 32.8495 382.793 34.3865 385.603 35.9715L386.094 35.1005C383.273 33.5092 380.41 31.9661 377.507 30.4728L377.049 31.362ZM393.977 40.9141C396.746 42.6229 399.47 44.3798 402.147 46.1834L402.706 45.354C400.018 43.5429 397.283 41.7788 394.502 40.0631L393.977 40.9141ZM410.097 51.7771C412.718 53.7028 415.289 55.6752 417.808 57.6926L418.433 56.9121C415.903 54.8859 413.321 52.9051 410.689 50.9712L410.097 51.7771ZM425.262 63.9266C427.71 66.0652 430.103 68.2486 432.439 70.4752L433.129 69.7514C430.783 67.5147 428.379 65.3215 425.919 63.1735L425.262 63.9266ZM439.32 77.3333C441.569 79.6782 443.758 82.066 445.883 84.4947L446.636 83.8362C444.5 81.3959 442.302 78.9969 440.041 76.641L439.32 77.3333ZM452.107 91.9522C454.129 94.494 456.083 97.0761 457.969 99.6968L458.781 99.1127C456.886 96.4789 454.921 93.884 452.89 91.3298L452.107 91.9522ZM463.447 107.718C465.21 110.442 466.901 113.205 468.517 116.003L469.383 115.503C467.758 112.69 466.058 109.913 464.286 107.174L463.447 107.718ZM473.156 124.537C474.63 127.425 476.026 130.347 477.341 133.302L478.255 132.895C476.932 129.924 475.528 126.986 474.047 124.083L473.156 124.537ZM481.052 142.276C482.207 145.3 483.28 148.355 484.267 151.438L485.22 151.133C484.226 148.032 483.148 144.96 481.986 141.919L481.052 142.276ZM486.971 160.764C487.784 163.891 488.511 167.045 489.149 170.225L490.129 170.028C489.488 166.83 488.757 163.657 487.939 160.512L486.971 160.764ZM490.789 179.793C491.243 182.986 491.609 186.202 491.884 189.439L492.88 189.354C492.604 186.098 492.236 182.864 491.779 179.652L490.789 179.793ZM492.431 199.131C492.477 200.749 492.5 202.372 492.5 204H493.5C493.5 202.363 493.477 200.73 493.431 199.102L492.431 199.131ZM7.29289 204.707C7.68342 205.098 8.31658 205.098 8.70711 204.707L15.0711 198.343C15.4616 197.953 15.4616 197.319 15.0711 196.929C14.6805 196.538 14.0474 196.538 13.6569 196.929L8 202.586L2.34315 196.929C1.95262 196.538 1.31946 196.538 0.928932 196.929C0.538408 197.319 0.538408 197.953 0.928932 198.343L7.29289 204.707ZM492 204C492 204.552 492.448 205 493 205C493.552 205 494 204.552 494 204H492ZM9.0684 199.145L9.09659 198.145L7.09738 198.089L7.06919 199.088L9.0684 199.145ZM7.62144 189.312L7.53683 190.308L9.52966 190.477L9.61427 189.481L7.62144 189.312ZM10.7063 179.864L10.8472 178.874L8.86718 178.592L8.72623 179.582L10.7063 179.864ZM10.3805 169.93L10.1838 170.91L12.1447 171.304L12.3414 170.323L10.3805 169.93ZM14.5125 160.889L14.7641 159.922L12.8284 159.418L12.5769 160.386L14.5125 160.889ZM15.304 150.981L14.9989 151.933L16.9036 152.543L17.2087 151.591L15.304 150.981ZM20.4154 142.455L20.7723 141.52L18.904 140.807L18.5471 141.741L20.4154 142.455ZM22.2884 132.691L21.8816 133.605L23.7086 134.418L24.1154 133.505L22.2884 132.691ZM28.2894 124.765L28.744 123.874L26.9626 122.965L26.508 123.855L28.2894 124.765ZM31.1844 115.253L30.6843 116.119L32.4162 117.119L32.9163 116.253L31.1844 115.253ZM37.9732 107.989L38.5165 107.15L36.8374 106.063L36.2941 106.903L37.9732 107.989ZM41.8133 98.8207L41.2292 99.6324L42.8526 100.801L43.4367 99.9889L41.8133 98.8207ZM49.2842 92.2635L49.9067 91.4809L48.3414 90.236L47.719 91.0186L49.2842 92.2635ZM53.988 83.507L53.3295 84.2596L54.8346 85.5766L55.4931 84.8241L53.988 83.507ZM62.0409 77.6794L62.7332 76.9578L61.2899 75.5733L60.5977 76.2949L62.0409 77.6794ZM67.526 69.3895L66.8022 70.0796L68.1822 71.5272L68.906 70.8372L67.526 69.3895ZM76.0673 64.3033L76.8205 63.6455L75.5049 62.1391L74.7517 62.7969L76.0673 64.3033ZM82.2545 56.5219L81.474 57.147L82.7242 58.708L83.5048 58.0829L82.2545 56.5219ZM91.1991 52.18L92.005 51.588L90.8208 49.9762L90.0149 50.5683L91.1991 52.18ZM98.0144 44.9394L97.185 45.4981L98.3025 47.1568L99.1318 46.5981L98.0144 44.9394ZM107.285 41.3397L108.136 40.8146L107.086 39.1125L106.235 39.6376L107.285 41.3397ZM114.66 34.6651L113.789 35.1564L114.772 36.8983L115.643 36.407L114.66 34.6651ZM124.179 31.8067L125.068 31.3493L124.154 29.5708L123.264 30.0282L124.179 31.8067ZM132.038 25.7242L131.132 26.1476L131.978 27.9594L132.884 27.536L132.038 25.7242ZM141.746 23.5948L142.667 23.2055L141.889 21.3633L140.968 21.7526L141.746 23.5948ZM150.04 18.1141L149.105 18.4692L149.815 20.3389L150.75 19.9837L150.04 18.1141ZM159.883 16.7032L160.83 16.3823L160.188 14.4881L159.241 14.809L159.883 16.7032ZM168.558 11.8376L167.6 12.1243L168.174 14.0403L169.132 13.7536L168.558 11.8376ZM178.482 11.1353L179.45 10.8827L178.945 8.94754L177.977 9.20008L178.482 11.1353ZM187.468 6.90019L186.493 7.11865L186.929 9.07034L187.905 8.85188L187.468 6.90019ZM197.406 6.89793L198.388 6.71348L198.02 4.7478L197.037 4.93224L197.406 6.89793ZM206.671 3.29553L205.682 3.44606L205.983 5.42327L206.972 5.27274L206.671 3.29553ZM216.593 3.97545L217.587 3.85872L217.353 1.87239L216.36 1.98912L216.593 3.97545ZM226.093 1.0119L225.097 1.09498L225.263 3.08806L226.26 3.00498L226.093 1.0119ZM235.936 2.36128L236.935 2.31159L236.836 0.314058L235.837 0.363753L235.936 2.36128ZM245.597 0.040536L244.597 0.0570809L244.63 2.05681L245.63 2.04026L245.597 0.040536ZM255.37 2.04026L256.37 2.05681L256.403 0.0570796L255.403 0.0405349L255.37 2.04026ZM265.163 0.363749L264.164 0.314055L264.065 2.31158L265.064 2.36128L265.163 0.363749ZM274.74 3.00498L275.737 3.08806L275.903 1.09497L274.907 1.01189L274.74 3.00498ZM284.64 1.98911L283.647 1.87238L283.413 3.85871L284.407 3.97544L284.64 1.98911ZM294.028 5.27273L295.017 5.42326L295.318 3.44605L294.329 3.29552L294.028 5.27273ZM303.963 4.93223L302.98 4.74779L302.612 6.71347L303.594 6.89792L303.963 4.93223ZM313.095 8.85187L314.07 9.07033L314.507 7.11864L313.532 6.90018L313.095 8.85187ZM323.023 9.20007L322.055 8.94753L321.55 10.8827L322.517 11.1352L323.023 9.20007ZM331.868 13.7536L332.826 14.0403L333.4 12.1243L332.442 11.8375L331.868 13.7536ZM341.759 14.809L340.812 14.4881L340.17 16.3823L341.117 16.7032L341.759 14.809ZM350.25 19.9837L351.185 20.3388L351.895 18.4692L350.96 18.1141L350.25 19.9837ZM360.032 21.7526L359.111 21.3633L358.333 23.2055L359.254 23.5948L360.032 21.7526ZM368.115 27.536L369.021 27.9594L369.868 26.1475L368.962 25.7241L368.115 27.536ZM377.736 30.0281L376.846 29.5707L375.931 31.3492L376.821 31.8067L377.736 30.0281ZM385.357 36.407L386.228 36.8983L387.211 35.1564L386.34 34.665L385.357 36.407ZM394.765 39.6376L393.914 39.1125L392.863 40.8145L393.715 41.3396L394.765 39.6376ZM401.868 46.598L402.697 47.1568L403.815 45.4981L402.986 44.9393L401.868 46.598ZM410.985 50.5682L410.179 49.9762L408.995 51.5879L409.801 52.18L410.985 50.5682ZM417.495 58.0828L418.276 58.708L419.526 57.1469L418.745 56.5218L417.495 58.0828ZM426.248 62.7969L425.495 62.1391L424.179 63.6454L424.933 64.3032L426.248 62.7969ZM432.094 70.8371L432.818 71.5271L434.198 70.0795L433.474 69.3895L432.094 70.8371ZM440.402 76.2948L439.71 75.5732L438.267 76.9577L438.959 77.6794L440.402 76.2948ZM445.507 84.824L446.165 85.5766L447.67 84.2595L447.012 83.507L445.507 84.824ZM453.281 91.0185L452.659 90.2359L451.093 91.4808L451.716 92.2635L453.281 91.0185ZM457.563 99.9888L458.147 100.801L459.771 99.6324L459.187 98.8207L457.563 99.9888ZM464.706 106.903L464.163 106.063L462.483 107.15L463.027 107.989L464.706 106.903ZM468.084 116.253L468.584 117.119L470.316 116.119L469.816 115.253L468.084 116.253ZM474.492 123.855L474.037 122.965L472.256 123.874L472.711 124.765L474.492 123.855ZM476.885 133.505L477.291 134.418L479.118 133.605L478.712 132.691L476.885 133.505ZM482.453 141.741L482.096 140.807L480.228 141.52L480.585 142.454L482.453 141.741ZM483.791 151.591L484.096 152.543L486.001 151.933L485.696 150.981L483.791 151.591ZM488.423 160.386L488.172 159.418L486.236 159.922L486.487 160.889L488.423 160.386ZM488.659 170.323L488.855 171.304L490.816 170.91L490.619 169.93L488.659 170.323ZM492.274 179.582L492.133 178.592L490.153 178.874L490.294 179.864L492.274 179.582ZM491.386 189.481L491.47 190.477L493.463 190.308L493.379 189.312L491.386 189.481ZM493.931 199.088L493.903 198.089L491.903 198.145L491.932 199.145L493.931 199.088ZM9 204C9 202.377 9.02288 200.759 9.0684 199.145L7.06919 199.088C7.02315 200.721 7 202.358 7 204H9ZM9.61427 189.481C9.88833 186.254 10.253 183.047 10.7063 179.864L8.72623 179.582C8.26769 182.803 7.89871 186.047 7.62144 189.312L9.61427 189.481ZM12.3414 170.323C12.9775 167.153 13.702 164.008 14.5125 160.889L12.5769 160.386C11.7569 163.541 11.0241 166.723 10.3805 169.93L12.3414 170.323ZM17.2087 151.591C18.1937 148.516 19.2633 145.47 20.4154 142.455L18.5471 141.741C17.3821 144.79 16.3003 147.871 15.304 150.981L17.2087 151.591ZM24.1154 133.505C25.4276 130.559 26.8196 127.644 28.2894 124.765L26.508 123.855C25.0223 126.766 23.615 129.712 22.2884 132.691L24.1154 133.505ZM32.9163 116.253C34.5281 113.462 36.2145 110.707 37.9732 107.989L36.2941 106.903C34.5172 109.649 32.8132 112.433 31.1844 115.253L32.9163 116.253ZM43.4367 99.9889C45.3177 97.3748 47.2676 94.7991 49.2842 92.2635L47.719 91.0186C45.6825 93.579 43.7133 96.1803 41.8133 98.8207L43.4367 99.9889ZM55.4931 84.8241C57.6133 82.4011 59.7966 80.019 62.0409 77.6794L60.5977 76.2949C58.3324 78.6562 56.1285 81.0609 53.988 83.507L55.4931 84.8241ZM68.906 70.8372C71.2363 68.6156 73.6241 66.4371 76.0673 64.3033L74.7517 62.7969C72.2867 64.9497 69.8775 67.1478 67.526 69.3895L68.906 70.8372ZM83.5048 58.0829C86.0182 56.0698 88.5835 54.1017 91.1991 52.18L90.0149 50.5683C87.3772 52.5063 84.7897 54.4913 82.2545 56.5219L83.5048 58.0829ZM99.1318 46.5981C101.803 44.7982 104.522 43.0449 107.285 41.3397L106.235 39.6376C103.449 41.3568 100.708 43.1245 98.0144 44.9394L99.1318 46.5981ZM115.643 36.407C118.447 34.8252 121.293 33.2913 124.179 31.8067L123.264 30.0282C120.355 31.5245 117.487 33.0706 114.66 34.6651L115.643 36.407ZM132.884 27.536C135.802 26.1727 138.756 24.8585 141.746 23.5948L140.968 21.7526C137.954 23.026 134.977 24.3503 132.038 25.7242L132.884 27.536ZM150.75 19.9837C153.762 18.8396 156.807 17.7457 159.883 16.7032L159.241 14.809C156.142 15.8592 153.074 16.9613 150.04 18.1141L150.75 19.9837ZM169.132 13.7536C172.22 12.8293 175.337 11.9561 178.482 11.1353L177.977 9.20008C174.809 10.0269 171.669 10.9065 168.558 11.8376L169.132 13.7536ZM187.905 8.85188C191.047 8.14851 194.214 7.4968 197.406 6.89793L197.037 4.93224C193.823 5.53538 190.633 6.19175 187.468 6.90019L187.905 8.85188ZM206.972 5.27274C210.158 4.78766 213.365 4.35486 216.593 3.97545L216.36 1.98912C213.109 2.37119 209.879 2.80703 206.671 3.29553L206.972 5.27274ZM226.26 3.00498C229.467 2.73757 232.693 2.52265 235.936 2.36128L235.837 0.363753C232.571 0.526234 229.323 0.74263 226.093 1.0119L226.26 3.00498ZM245.63 2.04026C247.249 2.01346 248.873 2 250.5 2V0C248.862 0 247.227 0.0135541 245.597 0.040536L245.63 2.04026ZM250.5 2C252.127 2 253.751 2.01346 255.37 2.04026L255.403 0.0405349C253.773 0.0135537 252.138 0 250.5 0V2ZM265.064 2.36128C268.307 2.52265 271.533 2.73756 274.74 3.00498L274.907 1.01189C271.677 0.742625 268.428 0.52623 265.163 0.363749L265.064 2.36128ZM284.407 3.97544C287.635 4.35485 290.842 4.78765 294.028 5.27273L294.329 3.29552C291.121 2.80702 287.891 2.37118 284.64 1.98911L284.407 3.97544ZM303.594 6.89792C306.786 7.49679 309.953 8.14849 313.095 8.85187L313.532 6.90018C310.367 6.19174 307.177 5.53537 303.963 4.93223L303.594 6.89792ZM322.517 11.1352C325.662 11.9561 328.78 12.8293 331.868 13.7536L332.442 11.8375C329.331 10.9064 326.19 10.0269 323.023 9.20007L322.517 11.1352ZM341.117 16.7032C344.193 17.7456 347.238 18.8396 350.25 19.9837L350.96 18.1141C347.926 16.9613 344.858 15.8592 341.759 14.809L341.117 16.7032ZM359.254 23.5948C362.244 24.8585 365.198 26.1727 368.115 27.536L368.962 25.7241C366.023 24.3502 363.045 23.0259 360.032 21.7526L359.254 23.5948ZM376.821 31.8067C379.707 33.2912 382.553 34.8252 385.357 36.407L386.34 34.665C383.513 33.0705 380.644 31.5244 377.736 30.0281L376.821 31.8067ZM393.715 41.3396C396.478 43.0449 399.197 44.7982 401.868 46.598L402.986 44.9393C400.292 43.1245 397.551 41.3568 394.765 39.6376L393.715 41.3396ZM409.801 52.18C412.416 54.1017 414.982 56.0698 417.495 58.0828L418.745 56.5218C416.21 54.4913 413.623 52.5062 410.985 50.5682L409.801 52.18ZM424.933 64.3032C427.376 66.4371 429.764 68.6156 432.094 70.8371L433.474 69.3895C431.122 67.1477 428.713 64.9497 426.248 62.7969L424.933 64.3032ZM438.959 77.6794C441.203 80.0189 443.387 82.401 445.507 84.824L447.012 83.507C444.871 81.0608 442.668 78.6562 440.402 76.2948L438.959 77.6794ZM451.716 92.2635C453.732 94.799 455.682 97.3747 457.563 99.9888L459.187 98.8207C457.287 96.1803 455.317 93.579 453.281 91.0185L451.716 92.2635ZM463.027 107.989C464.786 110.707 466.472 113.462 468.084 116.253L469.816 115.253C468.187 112.433 466.483 109.649 464.706 106.903L463.027 107.989ZM472.711 124.765C474.18 127.644 475.572 130.558 476.885 133.505L478.712 132.691C477.385 129.712 475.978 126.766 474.492 123.855L472.711 124.765ZM480.585 142.454C481.737 145.47 482.806 148.516 483.791 151.591L485.696 150.981C484.7 147.871 483.618 144.79 482.453 141.741L480.585 142.454ZM486.487 160.889C487.298 164.008 488.022 167.153 488.659 170.323L490.619 169.93C489.976 166.722 489.243 163.541 488.423 160.386L486.487 160.889ZM490.294 179.864C490.747 183.047 491.112 186.254 491.386 189.481L493.379 189.312C493.101 186.047 492.732 182.803 492.274 179.582L490.294 179.864ZM491.932 199.145C491.977 200.758 492 202.377 492 204H494C494 202.358 493.977 200.721 493.931 199.088L491.932 199.145Z" fill="url(#paint0_linear_671_3287)"/>
<defs>
<linearGradient id="paint0_linear_671_3287" x1="8" y1="1" x2="493" y2="1" gradientUnits="userSpaceOnUse">
<stop stop-color="#9A4BFF"/>
<stop offset="1" stop-color="#7FD85F"/>
</linearGradient>
</defs>
</svg>
