<svg width="391" height="12" viewBox="0 0 391 12" fill="none" xmlns="http://www.w3.org/2000/svg">
<path d="M4 10C6.20914 10 8 8.20914 8 6C8 3.79086 6.20914 2 4 2C1.79086 2 -1.93129e-07 3.79086 0 6C1.93129e-07 8.20914 1.79086 10 4 10ZM390.53 6.5303C390.823 6.2374 390.823 5.76253 390.53 5.46964L385.757 0.696666C385.464 0.403772 384.99 0.403772 384.697 0.696666C384.404 0.989559 384.404 1.46443 384.697 1.75733L388.939 5.99997L384.697 10.2426C384.404 10.5355 384.404 11.0104 384.697 11.3033C384.99 11.5962 385.464 11.5962 385.757 11.3033L390.53 6.5303ZM4 6.75L390 6.74997L390 5.24997L4 5.25L4 6.75Z" fill="url(#paint0_linear_671_3292)"/>
<defs>
<linearGradient id="paint0_linear_671_3292" x1="4" y1="5.5" x2="384.176" y2="5.49997" gradientUnits="userSpaceOnUse">
<stop stop-color="#9A4BFF"/>
<stop offset="1" stop-color="#7FD85F"/>
</linearGradient>
</defs>
</svg>
