<svg width="40" height="40" viewBox="0 0 40 40" fill="none" xmlns="http://www.w3.org/2000/svg">
<rect x="1" y="1" width="38" height="38" rx="19" fill="#7000FF"/>
<path d="M24 13L26 15L30 11M20.5 11H15.8C14.1198 11 13.2798 11 12.638 11.327C12.0735 11.6146 11.6146 12.0735 11.327 12.638C11 13.2798 11 14.1198 11 15.8V24.2C11 25.8802 11 26.7202 11.327 27.362C11.6146 27.9265 12.0735 28.3854 12.638 28.673C13.2798 29 14.1198 29 15.8 29H25C25.93 29 26.395 29 26.7765 28.8978C27.8117 28.6204 28.6204 27.8117 28.8978 26.7765C29 26.395 29 25.93 29 25M18.5 16.5C18.5 17.6046 17.6046 18.5 16.5 18.5C15.3954 18.5 14.5 17.6046 14.5 16.5C14.5 15.3954 15.3954 14.5 16.5 14.5C17.6046 14.5 18.5 15.3954 18.5 16.5ZM22.99 19.9181L14.5311 27.608C14.0554 28.0406 13.8175 28.2568 13.7964 28.4442C13.7782 28.6066 13.8405 28.7676 13.9632 28.8755C14.1048 29 14.4263 29 15.0693 29H24.456C25.8951 29 26.6147 29 27.1799 28.7582C27.8894 28.4547 28.4547 27.8894 28.7582 27.1799C29 26.6147 29 25.8951 29 24.456C29 23.9717 29 23.7296 28.9471 23.5042C28.8805 23.2208 28.753 22.9554 28.5733 22.7264C28.4303 22.5442 28.2412 22.3929 27.8631 22.0905L25.0658 19.8527C24.6874 19.5499 24.4982 19.3985 24.2898 19.3451C24.1061 19.298 23.9129 19.3041 23.7325 19.3627C23.5279 19.4291 23.3486 19.5921 22.99 19.9181Z" stroke="white" stroke-width="2" stroke-linecap="round" stroke-linejoin="round"/>
<rect x="1" y="1" width="38" height="38" rx="19" stroke="#9746FF" stroke-width="2"/>
</svg>
