<svg width="33" height="22" viewBox="0 0 33 22" fill="none" xmlns="http://www.w3.org/2000/svg">
<path fill-rule="evenodd" clip-rule="evenodd" d="M11.3934 2.14331C10.4345 2.40022 9.99136 2.93778 10.093 3.61231C10.1862 4.25516 10.7209 4.56467 11.7429 4.29081C12.7017 4.0339 13.1449 3.49634 13.0432 2.82181C12.95 2.17896 12.4154 1.86946 11.3934 2.14331ZM13.0887 6.6581C13.0458 5.86594 13.0556 5.05966 13.1153 4.2287C12.7267 4.25359 12.1493 4.37436 11.6119 4.51834C10.9692 4.69056 10.5352 4.84082 10.0176 5.05873C10.0209 5.70304 10.0501 6.31776 10.1165 6.94514C10.2486 6.93238 10.3807 6.91962 10.4966 6.88857C10.5541 7.6089 10.5813 8.25813 10.6144 9.09818C10.6643 10.2959 11.1068 10.9358 12.4027 10.5885C13.6671 10.2497 13.9815 9.61084 13.8592 7.59488L13.4483 7.70498C13.4785 8.53448 13.4367 8.71548 13.3313 8.74371C13.247 8.76629 13.1977 8.66633 13.1796 8.3882L13.0887 6.6581ZM7.12006 4.08067C7.13589 4.68766 7.17641 5.34462 7.25058 5.95861L7.65946 5.88301C7.73158 6.53151 7.77981 7.17509 7.82033 7.83206C7.82485 7.88686 7.82724 7.94224 7.82968 7.99864L7.82968 7.99868C7.83266 8.06762 7.8357 8.13808 7.84279 8.21089C7.23824 6.92404 6.67867 5.63646 6.12963 4.34605L2.27331 5.37935C2.28504 6.05535 2.32966 6.64331 2.40383 7.2573L2.43366 7.25193C2.55146 7.23074 2.6608 7.21108 2.76773 7.18243C2.85527 7.80416 2.93228 8.42871 2.97767 9.06173C3.02873 9.71587 3.05871 10.3757 3.06762 11.0411C2.95026 11.0725 2.84442 11.1107 2.73098 11.1515L2.70451 11.161C2.71782 11.55 2.74246 11.949 2.77808 12.3365L0.0375528 13.0709C0.202522 13.8867 0.3998 14.5729 0.605298 15.1897L0.605322 15.1897C0.849697 15.1511 1.09407 15.1125 1.33173 15.0488C1.28026 16.6079 1.19463 18.1897 1.0739 19.7405C0.964681 19.7832 0.855463 19.8259 0.749603 19.8811C0.900206 20.5933 1.09169 21.3079 1.31735 22L5.04493 21.0012C4.89432 20.289 4.70283 19.5744 4.47718 18.8823C4.25781 18.9142 4.0293 18.962 3.80078 19.0098L3.76426 18.173L5.35286 17.7474L5.71125 18.4845C5.48948 18.5573 5.27107 18.6427 5.05266 18.7281L5.05258 18.7282C5.20318 19.4403 5.39467 20.155 5.62032 20.847L10.4487 19.5533C10.2981 18.8411 10.1066 18.1265 9.88092 17.4344C9.74911 17.4428 9.63317 17.4605 9.49222 17.4848C8.25144 15.506 7.09485 13.4912 6.02919 11.4654L5.54519 11.5951C5.52294 11.204 5.48991 10.8072 5.44397 10.427L5.0351 10.5026C4.96297 9.8541 4.91475 9.21052 4.87423 8.55355L4.85177 8.17472C5.46402 9.44818 6.03696 10.7435 6.59653 12.0311L10.0103 11.1164C9.90961 10.1926 9.84049 9.26032 9.77138 8.32807L9.77137 8.32799C9.69864 7.34009 9.65752 6.34371 9.63747 5.34169C9.75337 5.31063 9.87698 5.26619 9.99005 5.22458C9.96856 4.59647 9.9175 3.94233 9.83845 3.35228L7.12006 4.08067ZM16.7638 2.93415C16.605 2.93143 16.4174 2.94774 16.2067 3.00421C15.8168 3.10867 15.6822 3.28057 15.7444 3.51291L15.7614 3.57627C16.0826 3.46828 16.4064 3.3702 16.7208 3.275L16.7511 3.26582C16.8597 3.8819 16.8966 4.48324 16.9104 5.12473L16.6048 5.20661L16.7865 6.9803C17.0783 9.77238 16.1232 10.6822 15.2737 11.0369C16.1874 11.1695 17.0015 11.989 17.4794 13.7724C18.1949 16.4429 17.4615 17.8086 16.0605 18.1839C15.2725 18.3951 14.3067 18.1432 13.5954 16.4391C13.786 17.1003 13.9924 17.7706 14.1902 18.3088C14.2922 18.2815 14.403 18.2642 14.5117 18.2473L14.5117 18.2473L14.5118 18.2472L14.5118 18.2472L14.5118 18.2472L14.5119 18.2472L14.512 18.2472C14.5632 18.2392 14.614 18.2313 14.6631 18.2224C14.8418 18.739 14.9795 19.253 15.0831 19.7896L11.0553 20.8689C10.8388 20.1609 10.654 19.4714 10.4875 18.75C10.6059 18.6914 10.7151 18.6487 10.8368 18.6027C10.7198 18.0159 10.587 17.4199 10.4291 16.8306C10.251 16.1662 10.0354 15.5117 9.79149 14.8514C9.7182 14.8711 9.64737 14.8787 9.57487 14.8864C9.536 14.8906 9.49665 14.8948 9.45618 14.901C9.22717 14.1964 9.0424 13.5068 8.88844 12.7821C9.46198 12.5209 10.0432 12.3383 10.6311 12.1808C11.194 12.03 11.7761 11.9009 12.3658 11.8504L12.8866 13.7937C12.7799 12.2539 13.3646 11.5223 14.1096 11.2054C14.0513 10.5901 13.993 9.96587 13.9747 9.34102C14.2114 9.25496 14.3233 8.99857 14.2041 7.92127L13.9812 5.90959L13.5809 6.01687C13.518 5.44512 13.4819 4.88885 13.4879 4.32129C13.5876 4.27193 13.6979 4.21976 13.8004 4.18096C13.6365 2.5157 14.2189 1.61259 15.7256 1.20887C16.1471 1.09594 16.4429 1.06196 16.6572 1.06112C16.716 1.70188 16.7557 2.31378 16.7638 2.93415ZM20.8856 4.05956C20.8719 3.41807 20.8321 2.80617 20.7235 2.19009C20.4804 2.25524 20.2496 2.32754 20.0099 2.40262L20.0099 2.40263L19.9811 2.41166C19.9821 2.33176 19.9829 2.25263 19.9838 2.17412C19.9875 1.81738 19.9912 1.47315 20.009 1.12512C19.6415 1.14436 19.1167 1.25102 18.6321 1.38089C18.0526 1.53616 17.6607 1.67513 17.2063 1.8761C17.2627 2.38166 17.3099 2.81047 17.3437 3.23154C17.2201 3.27598 17.1098 3.32816 16.9996 3.38034C16.9936 3.9479 17.0297 4.50417 17.0925 5.07592L17.4508 4.97993L17.5678 7.14448C17.6331 8.31548 18.2514 9.02138 19.5684 8.66847C21.033 8.27604 21.1263 7.40211 21.0026 5.00167L20.4863 5.14001C20.5715 6.84898 20.4693 7.05747 20.3534 7.08853C20.2059 7.12805 20.1586 6.99359 20.0769 5.34025C20.0545 4.96142 20.0405 4.61427 20.0322 4.28824L20.8856 4.05956ZM24.8041 2.42103C24.7675 1.9894 24.7098 1.56341 24.6521 1.13742C25.5538 0.793932 26.3651 0.576544 27.2967 0.428794C27.3319 1.23434 27.3732 1.93638 27.4356 2.63276L27.5913 4.43605C27.736 6.14517 27.3497 7.24605 26.2285 7.93635C27.2716 7.69103 28.1279 7.93487 28.7905 9.39784L28.3034 7.57989C29.0963 7.2868 29.9094 7.06895 30.7426 6.92631C31.0052 7.75628 31.2505 8.67152 31.4514 9.57175C30.6085 9.87824 29.8205 10.0894 29.0123 10.2253L28.9686 10.0623C28.8712 9.69875 28.6182 9.60527 28.3647 9.65977C28.0736 9.72432 27.9129 9.87489 27.9801 10.1256C28.0506 10.3889 28.241 10.4992 29.6323 10.2876C31.2179 10.0509 31.9454 10.5144 32.2578 11.6804C32.6307 13.0721 32.0857 13.89 30.5971 14.2889C29.4714 14.5905 28.4849 14.4114 27.7297 12.8937L28.2369 14.7869C27.444 15.08 26.631 15.2979 25.7977 15.4405C25.5351 14.6105 25.2899 13.6953 25.0889 12.7951C25.9318 12.4886 26.7199 12.2774 27.5281 12.1415L27.5482 12.2167C27.6725 12.6806 28.0549 12.8066 28.4426 12.7027C28.7679 12.6155 28.8844 12.4499 28.8306 12.2493C28.7567 11.9735 28.5413 11.87 27.2876 12.0446C25.5294 12.2873 24.7942 11.7452 24.4818 10.5792C24.2154 9.58515 24.462 8.88799 25.0713 8.43553C24.9997 8.45709 24.9264 8.47791 24.8514 8.498C22.7546 9.05982 21.7789 8.49497 21.7534 7.17749C22.4375 6.94891 23.1329 6.76258 23.8817 6.60719C23.9281 6.99094 24.1363 7.09362 24.3997 7.02304C24.8633 6.89882 25.0922 6.3621 24.932 3.99407C24.7643 5.7708 23.9727 6.35645 23.2878 6.53996C21.9918 6.88722 21.6285 6.07906 21.5441 4.8792C21.5216 4.50037 21.4902 4.2145 21.4539 3.95257L21.4269 3.95701L21.4268 3.95701C21.3261 3.97354 21.2178 3.99133 21.116 3.99785C21.0495 3.37047 21.0203 2.75575 21.017 2.11144C21.5451 1.8907 21.9897 1.73762 22.6535 1.55976C23.1382 1.42989 23.684 1.31759 24.0515 1.29835C24.0463 1.91098 24.0565 2.49684 24.0821 3.05594C24.1216 3.96218 24.2204 4.1621 24.4838 4.09152C24.7156 4.02941 24.8645 3.61597 24.8041 2.42103ZM4.72157 16.4921C4.36411 15.8085 3.99414 15.1282 3.62417 14.448L3.70837 16.7636L4.72157 16.4921ZM13.3602 15.5615C13.5215 16.1633 13.8239 16.3913 14.1742 16.2975C14.5619 16.1936 14.6512 15.7262 14.4194 14.8611C14.1876 13.996 13.8766 13.6359 13.4888 13.7398C13.1511 13.8303 12.9965 14.1539 13.1284 14.6964L13.3602 15.5615ZM22.1644 13.5115C22.3421 13.9745 22.1991 14.2413 21.8989 14.3217C21.5236 14.4223 21.2789 14.2594 20.9961 13.3542L21.9093 13.1095C22.4838 12.9556 22.946 12.8297 23.326 12.7261L23.326 12.7261L23.3261 12.7261L23.3262 12.7261C23.914 12.5659 24.3052 12.4594 24.6111 12.3856C24.6074 12.1716 24.5585 11.889 24.4712 11.563C23.974 9.70748 22.656 8.89155 20.5545 9.45463C18.278 10.0646 17.1879 11.7005 17.8161 14.045C18.4242 16.3143 19.8841 17.1594 22.2607 16.5226C24.2246 15.9964 25.2918 14.6757 24.8954 13.1963C24.8584 13.0584 24.8123 12.9363 24.747 12.7926C23.8897 12.9954 23.0141 13.2301 22.1644 13.5115ZM21.1262 11.4381C21.514 11.3341 21.7466 11.7018 21.8776 12.1908L21.9313 12.3914L20.8181 12.6897C20.6305 11.8396 20.7885 11.5285 21.1262 11.4381Z" fill="white"/>
</svg>
