<svg width="40" height="40" viewBox="0 0 40 40" fill="none" xmlns="http://www.w3.org/2000/svg">
<rect x="1" y="1" width="38" height="38" rx="19" fill="#7000FF"/>
<g clip-path="url(#clip0_715_1211)">
<path d="M23.5847 20.6006C23.8697 20.8856 24.1034 21.2043 24.2857 21.5457C24.5473 21.4675 24.8206 21.4261 25.1018 21.4261C26.2782 21.4261 27.3167 22.1511 27.9368 23.2568C28.0469 23.4531 28.3613 23.4096 28.3613 23.1845V23.1845C28.3613 20.6596 26.7717 18.6151 24.7367 18.6151L24.5831 18.983C24.3214 19.5743 24.0088 20.1387 23.6506 20.6705M23.5847 20.6006L23.6506 20.6705M23.5847 20.6006C21.9278 18.9437 19.137 19.0229 17.2152 20.7305C18.0913 20.7552 19.0892 21.0785 19.7187 21.7081M23.5847 20.6006C25.3114 22.3273 25.1525 25.2858 23.2298 27.2086C21.9935 28.4449 20.3289 28.9519 18.8389 28.6973C18.4076 28.6237 18.3957 28.0563 18.7505 27.8002C18.9561 27.6517 19.1536 27.4842 19.3401 27.2976C20.9882 25.6496 21.1577 23.147 19.7187 21.7081M23.6506 20.6705C24.9164 18.7909 25.5044 16.657 25.5044 14.0654L25.3979 11.6768C25.3724 11.105 24.9662 10.6215 24.4073 10.4979C23.7251 10.347 23.0498 10.7777 22.8989 11.4599C21.6353 17.1732 17.1732 21.6352 11.4599 22.8989C10.9011 23.0225 10.4948 23.506 10.4693 24.0778C10.4382 24.7758 10.9788 25.3668 11.6768 25.3979L14.0654 25.5044C14.3906 25.5189 14.7164 25.5189 15.0416 25.5044C17.1047 25.4124 19.009 24.7559 20.6119 23.6908C20.6435 23.6697 20.6604 23.6324 20.6548 23.5949C20.5488 22.8874 20.2389 22.2282 19.7187 21.7081M13.3543 16.8357C15.1397 15.0503 17.7536 14.7695 19.1926 16.2085C19.5777 16.5936 19.8396 17.0628 19.9825 17.5778C19.3452 18.378 18.6288 19.1107 17.8443 19.765C17.7796 19.819 17.6808 19.7724 17.6756 19.6883C17.6341 19.0061 17.3804 18.3751 16.9025 17.8972C16.1153 17.11 14.9124 16.9311 13.7522 17.3113C13.4441 17.4123 13.1251 17.065 13.3543 16.8357V16.8357Z" stroke="white" stroke-width="1.5" stroke-linecap="round"/>
</g>
<rect x="1" y="1" width="38" height="38" rx="19" stroke="#9746FF" stroke-width="2"/>
<defs>
<clipPath id="clip0_715_1211">
<rect width="24" height="24" fill="white" transform="translate(8 8)"/>
</clipPath>
</defs>
</svg>
