<svg width="151" height="40" viewBox="0 0 151 40" fill="none" xmlns="http://www.w3.org/2000/svg">
<g clip-path="url(#clip0_669_762)">
<path d="M51.7654 33.6048V13.6317H54.7264L55.0084 15.2438H55.1494C55.9954 14.1396 57.433 13.3486 59.4348 13.3486C63.0982 13.3486 66.0315 16.3481 66.0315 20.7881C66.0315 25.2279 63.1008 28.2274 59.4348 28.2274C57.4608 28.2274 56.0809 27.4061 55.3483 26.4736H55.2072V33.6022H51.7679L51.7654 33.6048ZM62.5897 20.7905C62.5897 18.1878 60.9254 16.5478 58.8959 16.5478C56.8665 16.5478 55.2022 18.1878 55.2022 20.7905C55.2022 23.3934 56.8665 25.0334 58.8959 25.0334C60.9254 25.0334 62.5897 23.3934 62.5897 20.7905Z" fill="white"/>
<path d="M67.7773 20.7907C67.7773 16.462 70.8768 13.3513 75.0213 13.3513C79.1656 13.3513 82.2651 16.462 82.2651 20.7907C82.2651 25.1194 79.1656 28.2301 75.0213 28.2301C70.8768 28.2301 67.7773 25.0891 67.7773 20.7907ZM78.7981 20.7907C78.7981 18.2435 77.106 16.548 75.0213 16.548C72.9364 16.548 71.2168 18.2461 71.2168 20.7907C71.2168 23.3354 72.9364 25.0057 75.0213 25.0057C77.106 25.0057 78.7981 23.3378 78.7981 20.7907Z" fill="white"/>
<path d="M84.7554 27.9468V8.14551H88.1947V27.9492H84.7554V27.9468Z" fill="white"/>
<path d="M100.964 13.6313H104.627L98.4258 31.0295C97.8064 32.7554 96.9604 33.6044 94.7321 33.6044H91.406V30.4078H94.2261C94.7347 30.4078 95.0141 30.1526 95.1853 29.7281L95.5227 28.7956L89.7166 13.6313H93.38L97.0738 23.5624H97.6378L100.964 13.6313Z" fill="white"/>
<path d="M105.285 28.6544H108.78C108.921 29.5869 109.85 30.8605 112.051 30.8605C114.108 30.8605 115.462 29.5591 115.462 27.5779V25.5691H115.321C114.561 26.3902 113.151 27.1256 111.346 27.1256C107.682 27.1256 104.862 24.2954 104.862 20.2219C104.862 16.1485 107.682 13.3486 111.346 13.3486C113.234 13.3486 114.616 14.1118 115.49 15.1882H115.631L115.913 13.6317H118.902V27.5779C118.902 31.3684 116.364 33.8878 112.051 33.8878C107.231 33.8878 105.371 30.7189 105.285 28.6544ZM115.462 20.2245C115.462 17.9906 113.884 16.4341 111.882 16.4341C109.88 16.4341 108.329 17.9906 108.329 20.2245C108.329 22.4584 109.908 24.0428 111.882 24.0428C113.856 24.0428 115.462 22.4861 115.462 20.2245Z" fill="white"/>
<path d="M121.292 20.7907C121.292 16.462 124.391 13.3513 128.536 13.3513C132.68 13.3513 135.779 16.462 135.779 20.7907C135.779 25.1194 132.68 28.2301 128.536 28.2301C124.391 28.2301 121.292 25.0891 121.292 20.7907ZM132.312 20.7907C132.312 18.2435 130.62 16.548 128.536 16.548C126.451 16.548 124.731 18.2461 124.731 20.7907C124.731 23.3354 126.451 25.0057 128.536 25.0057C130.62 25.0057 132.312 23.3378 132.312 20.7907Z" fill="white"/>
<path d="M138.174 27.9469V13.6317H141.132L141.414 14.9886H141.555C142.119 14.3392 143.529 13.3486 145.67 13.3486C148.94 13.3486 151.307 15.7239 151.307 19.3451V27.9444H147.868V19.7975C147.868 17.9578 146.571 16.6286 144.796 16.6286C143.021 16.6286 141.611 18.0159 141.611 19.7975V27.9444H138.171L138.174 27.9469Z" fill="white"/>
<path d="M31.746 26.2766L40.2008 21.3769C40.649 21.1166 40.926 20.6339 40.926 20.1159V10.3164C40.926 9.79838 40.649 9.31574 40.2008 9.05545L31.746 4.15568C31.2977 3.89541 30.7413 3.89794 30.2956 4.15568L21.8406 9.05545C21.3925 9.31574 21.1156 9.79838 21.1156 10.3164V27.8282L15.186 31.2624L9.25645 27.8282V20.9575L15.186 17.5234L19.0963 19.7899V15.1808L15.9111 13.3336C15.692 13.2073 15.4404 13.139 15.186 13.139C14.9316 13.139 14.68 13.2073 14.4609 13.3336L6.00591 18.2334C5.55773 18.4936 5.28076 18.9764 5.28076 19.4944V29.2939C5.28076 29.8119 5.55773 30.2945 6.00591 30.5548L14.4609 35.4546C14.909 35.7124 15.463 35.7124 15.9111 35.4546L24.3661 30.5548C24.8143 30.2945 25.0912 29.8119 25.0912 29.2939V11.7795L25.1969 11.7189L31.0183 8.34538L36.9479 11.7795V18.6504L31.0183 22.0845L27.113 19.8228V24.4321L30.2931 26.2742C30.7413 26.5319 31.2977 26.5319 31.7434 26.2742L31.746 26.2766Z" fill="white"/>
</g>
<defs>
<clipPath id="clip0_669_762">
<rect width="151" height="40" fill="white"/>
</clipPath>
</defs>
</svg>
