<svg width="250" height="54" viewBox="0 0 250 54" fill="none" xmlns="http://www.w3.org/2000/svg">
<g clip-path="url(#clip0_669_771)">
<path d="M63.157 32.8667C63.157 33.6372 63.157 34.1655 63.157 34.7599C61.9845 34.7599 60.9022 34.7599 59.7522 34.7599C59.7522 27.6054 59.7522 20.4949 59.7522 13.2964C60.8571 13.2964 61.962 13.2964 63.1345 13.2964C63.1345 15.938 63.1345 18.5797 63.1345 21.5076C65.0511 19.8345 67.0354 19.02 69.403 19.5043C71.7255 19.9666 73.4618 21.1773 74.5892 23.1806C76.5509 26.7028 75.649 31.3918 72.65 33.6372C70.3951 35.3102 66.4717 36.1688 63.157 32.8667ZM72.0186 27.2532C72.0186 24.4794 70.2373 22.6082 67.6217 22.6082C65.006 22.6082 63.1345 24.5014 63.1119 27.1871C63.0894 29.9609 64.9609 31.8981 67.5991 31.8981C70.2148 31.8981 72.0186 30.0049 72.0186 27.2532Z" fill="white"/>
<path d="M123.903 28.1116C120.07 28.1116 116.236 28.1116 112.38 28.1116C112.313 29.7406 113.373 31.1495 114.974 31.7659C116.687 32.4043 118.829 32.0741 119.709 30.7973C120.25 30.0048 120.836 29.8947 121.648 29.9388C122.347 29.9828 123.069 29.9388 123.79 29.9388C123.542 32.9987 119.596 35.5303 115.808 35.134C110.937 34.6057 108.006 30.7973 108.682 25.8882C109.269 21.7496 113.35 18.7997 117.634 19.4382C121.986 20.0986 124.715 23.8189 123.903 28.1116ZM120.34 25.558C120.002 23.4227 118.378 22.2779 116.033 22.432C114.207 22.5641 112.674 23.951 112.606 25.558C115.176 25.558 117.747 25.558 120.34 25.558Z" fill="white"/>
<path d="M77.6558 24.4575C78.1744 21.3536 80.3391 19.5484 83.6312 19.3943C84.0822 19.3723 84.5331 19.3723 84.9841 19.3943C88.6595 19.5484 90.6438 21.5517 90.6438 25.1179C90.6438 27.2753 90.6438 29.4326 90.6438 31.6781C91.2075 31.7221 91.7261 31.7661 92.3124 31.8101C92.3124 32.7787 92.3124 33.7033 92.3124 34.6279C89.9222 35.3103 88.5919 34.782 87.4194 32.6687C85.4351 35.0242 82.9998 35.7066 80.1136 34.716C78.3548 34.0996 77.3627 32.8448 77.2048 31.0397C77.047 29.2345 77.7234 27.6935 79.4597 26.9891C80.9479 26.3947 82.6165 26.1746 84.2174 25.7783C84.8263 25.6242 85.4802 25.5582 86.0664 25.316C87.239 24.8317 87.3743 23.665 86.4272 22.8725C85.0292 21.7058 82.0979 22.2341 81.3312 23.8411C81.0606 24.3915 80.7675 24.5015 80.2263 24.5015C79.392 24.4355 78.5577 24.4575 77.6558 24.4575ZM87.0811 27.6935C85.9762 27.9357 84.9616 28.1338 83.9694 28.376C83.2479 28.5521 82.5038 28.6842 81.8273 28.9263C81.0155 29.2345 80.5871 29.8289 80.6999 30.7315C80.8352 31.59 81.444 31.9422 82.2106 32.1403C84.6233 32.7347 87.8252 31.0617 87.0811 27.6935Z" fill="white"/>
<path d="M32.9871 27.2311C33.0547 31.5899 29.5371 35.1121 25.0951 35.1561C20.405 35.2002 16.9776 31.9201 16.9099 27.3412C16.8423 23.0045 20.2697 19.4382 24.6215 19.3942C29.4695 19.3062 32.9194 22.5422 32.9871 27.2311ZM29.4019 27.3632C29.4244 24.5675 27.598 22.6523 24.9372 22.6302C22.3441 22.6302 20.4726 24.5234 20.4726 27.2311C20.4501 29.9168 22.3216 31.8981 24.8696 31.9201C27.5078 31.9201 29.3793 30.0269 29.4019 27.3632Z" fill="white"/>
<path d="M56.8658 34.76C55.7384 34.76 54.6786 34.76 53.461 34.76C53.461 33.7693 53.461 32.8228 53.461 31.8762C53.461 29.8949 53.5061 27.9137 53.4384 25.9544C53.3708 24.0612 52.2659 22.8064 50.6424 22.6523C48.5454 22.4322 46.967 23.4448 46.4934 25.3601C46.3356 25.9985 46.2905 26.6589 46.2905 27.3193C46.268 29.7628 46.2905 32.2064 46.2905 34.76C45.1405 34.76 44.0807 34.76 42.9082 34.76C42.9082 29.7848 42.9082 24.7877 42.9082 19.7465C44.0131 19.7465 45.0954 19.7465 46.2228 19.7465C46.2679 20.2749 46.2905 20.7812 46.313 21.1554C47.3954 20.6271 48.4101 19.9006 49.56 19.6364C53.4159 18.6899 56.5727 20.8252 56.8432 24.6996C57.0462 27.9797 56.8658 31.3478 56.8658 34.76Z" fill="white"/>
<path d="M93.5754 30.203C94.7254 30.203 95.8078 30.203 96.8675 30.203C97.9724 32.1402 100.363 32.9547 102.414 31.9421C102.911 31.7 103.339 31.0175 103.452 30.4672C103.61 29.6527 102.911 29.1904 102.189 29.0583C100.791 28.7721 99.3704 28.64 97.9724 28.3538C95.1313 27.7815 93.6656 25.9763 93.9362 23.5328C94.1166 21.9258 95.0411 20.8251 96.4842 20.1647C98.8518 19.086 101.287 19.042 103.677 20.0986C105.391 20.8691 106.338 22.256 106.563 24.1932C105.616 24.1932 104.714 24.2373 103.813 24.1712C103.519 24.1492 103.136 23.885 103.001 23.6209C102.212 21.9698 99.0548 21.9038 97.8597 22.8064C96.9577 23.4888 97.1381 24.7656 98.3106 25.1398C99.3704 25.47 100.498 25.5581 101.603 25.7782C102.414 25.9323 103.226 26.0644 103.993 26.3286C105.955 27.055 106.857 28.3979 106.902 30.3351C106.947 32.3384 105.932 33.7252 104.128 34.4737C101.648 35.5084 99.0773 35.4863 96.597 34.4077C94.8607 33.6152 93.8009 32.2063 93.5754 30.203Z" fill="white"/>
<path d="M15.4442 25.4479C14.2041 25.4479 13.0541 25.4479 11.9041 25.4479C10.5061 22.41 7.98066 22.2559 6.22186 22.8943C3.78661 23.7749 2.70428 26.9448 3.89935 29.4985C4.93659 31.6778 7.61988 32.6244 9.78455 31.4577C10.4159 31.1275 11.0698 30.5771 11.3629 29.9828C11.7688 29.1462 12.31 29.0142 13.1217 29.0582C13.8658 29.1022 14.6099 29.0582 15.3541 29.0582C15.3315 32.2282 11.8816 35.068 8.0483 35.156C3.69642 35.2441 0.201383 32.1181 -0.114298 27.8474C-0.429979 23.5547 2.65918 19.8564 6.94342 19.3941C11.1375 18.9538 14.9031 21.5735 15.4442 25.4479Z" fill="white"/>
<path d="M164.897 34.7599C164.017 34.7599 163.386 34.7599 162.687 34.7599C162.687 29.7408 162.687 24.7876 162.687 19.8345C164.806 19.3062 165.235 19.4603 166.295 21.1113C168.234 24.1933 170.195 27.2752 172.135 30.3571C172.315 30.6653 172.518 30.9515 172.924 31.5459C172.924 27.4073 172.924 23.5989 172.924 19.7244C173.713 19.7244 174.367 19.7244 175.089 19.7244C175.089 24.7216 175.089 29.6967 175.089 34.6498C173.082 35.1562 172.631 35.0021 171.616 33.373C169.699 30.3131 167.805 27.2532 165.889 24.1933C165.641 23.797 165.37 23.4008 164.874 23.0265C164.897 26.901 164.897 30.7974 164.897 34.7599Z" fill="white"/>
<path d="M214.481 28.6181C216.826 30.6874 218.99 32.6246 221.403 34.782C219.757 34.76 218.404 35.2002 217.187 33.9014C215.721 32.3384 214.03 30.9736 212.429 29.5427C212.113 29.2565 211.775 28.9923 211.256 28.5741C211.256 30.7755 211.256 32.7127 211.256 34.76C210.467 34.76 209.791 34.76 209.024 34.76C209.024 29.7408 209.024 24.7877 209.024 19.9006C211.865 19.9006 214.684 19.7025 217.457 19.9667C219.644 20.1868 220.884 22.1901 220.772 24.3914C220.659 26.6148 219.329 28.0678 217.051 28.398C216.285 28.486 215.495 28.53 214.481 28.6181ZM211.279 26.6809C213.06 26.6809 214.751 26.7909 216.397 26.6369C217.863 26.5048 218.472 25.6022 218.472 24.1053C218.449 22.6523 217.773 21.7278 216.352 21.6177C214.684 21.4856 213.015 21.5957 211.279 21.5957C211.279 23.3348 211.279 24.9638 211.279 26.6809Z" fill="white"/>
<path d="M237.323 30.5553C238.067 30.5553 238.744 30.5553 239.397 30.5553C240.119 33.175 242.464 33.8134 245.283 33.0649C246.523 32.7347 247.222 31.7441 247.199 30.6434C247.177 29.5207 246.568 28.8603 245.147 28.53C244.088 28.2879 243.005 28.1558 241.945 27.9577C239.104 27.4514 237.684 26.0865 237.639 23.8411C237.616 21.6617 239.24 19.8786 241.855 19.4603C243.93 19.1301 246.049 19.1742 247.695 20.6491C248.462 21.3535 248.89 22.3882 249.522 23.3568C247.673 23.8851 247.357 23.7751 246.613 22.4982C245.531 20.6931 241.449 20.6271 240.299 22.4102C239.578 23.5329 239.916 24.9638 241.156 25.4701C242.103 25.8444 243.186 25.9764 244.2 26.1966C244.899 26.3507 245.598 26.4167 246.297 26.6148C248.304 27.2092 249.364 28.376 249.522 30.115C249.68 31.9862 248.733 33.6593 246.906 34.4518C244.606 35.4644 242.239 35.4864 239.939 34.4077C238.338 33.6593 237.368 32.4265 237.323 30.5553Z" fill="white"/>
<path d="M148.639 19.6805C152.157 19.6805 155.561 19.6805 159.034 19.6805C159.034 20.2749 159.034 20.8472 159.034 21.5296C156.351 21.5296 153.667 21.5296 150.916 21.5296C150.916 23.0486 150.916 24.4575 150.916 26.0205C153.419 26.0205 155.9 26.0205 158.425 26.0205C158.425 26.7249 158.425 27.2532 158.425 27.9137C155.922 27.9137 153.464 27.9137 150.916 27.9137C150.916 29.5867 150.916 31.1277 150.916 32.8668C153.6 32.8668 156.305 32.8668 159.079 32.8668C159.079 33.5712 159.079 34.0996 159.079 34.7159C155.629 34.7159 152.157 34.7159 148.639 34.7159C148.639 29.7188 148.639 24.7657 148.639 19.6805Z" fill="white"/>
<path d="M226.567 27.9356C226.567 29.6527 226.567 31.1937 226.567 32.8888C229.295 32.8888 232.001 32.8888 234.775 32.8888C234.775 33.5932 234.775 34.1215 234.775 34.7379C231.325 34.7379 227.875 34.7379 224.357 34.7379C224.357 29.7628 224.357 24.7656 224.357 19.7025C227.83 19.7025 231.28 19.7025 234.775 19.7025C234.775 20.3188 234.775 20.8912 234.775 21.5516C232.046 21.5516 229.363 21.5516 226.612 21.5516C226.612 23.0706 226.612 24.4795 226.612 26.0424C229.115 26.0424 231.618 26.0424 234.121 26.0424C234.121 26.7469 234.121 27.2752 234.121 27.9136C231.595 27.9356 229.137 27.9356 226.567 27.9356Z" fill="white"/>
<path d="M192.722 19.7464C193.533 19.7464 194.187 19.7464 194.976 19.7464C194.976 21.2654 194.976 22.7183 194.976 24.1712C194.976 26.0424 194.954 27.9135 194.976 29.7627C195.021 31.9201 196.487 33.2409 198.742 33.2409C200.952 33.2409 202.372 31.9641 202.417 29.8067C202.463 26.8789 202.417 23.951 202.417 21.0232C202.417 20.627 202.417 20.2307 202.417 19.7464C203.162 19.7464 203.861 19.7464 204.627 19.7464C204.65 20.0766 204.695 20.4068 204.695 20.715C204.695 23.5988 204.717 26.5047 204.695 29.3885C204.672 32.9987 202.395 35.2001 198.719 35.1781C194.999 35.1781 192.722 32.9767 192.699 29.4105C192.722 26.2185 192.722 23.0265 192.722 19.7464Z" fill="white"/>
<path d="M146.091 19.7685C144.31 24.6336 142.529 29.4106 140.815 34.2096C140.567 34.87 140.161 34.9581 139.62 34.87C138.988 34.782 138.154 35.2663 137.793 34.2756C136.012 29.4986 134.231 24.7436 132.449 19.9666C132.427 19.9006 132.472 19.8346 132.494 19.6584C132.923 19.6584 133.374 19.7025 133.802 19.6584C134.546 19.5704 134.839 19.9006 135.065 20.561C136.305 24.1493 137.613 27.7375 138.898 31.3258C138.988 31.5679 139.079 31.7881 139.281 32.2724C139.8 30.8635 140.251 29.6527 140.702 28.442C141.559 26.0645 142.416 23.687 143.25 21.3095C143.881 19.4603 143.881 19.4603 146.091 19.7685Z" fill="white"/>
<path d="M34.1367 19.7025C36.0083 19.7025 37.8347 19.7025 39.7062 19.7025C39.7062 24.7216 39.7062 29.6747 39.7062 34.7159C38.6239 34.7159 37.5641 34.7159 36.3465 34.7159C36.3239 34.3637 36.3014 33.9894 36.3014 33.5932C36.3014 30.4892 36.3014 27.3853 36.3014 24.2593C36.3014 22.4762 36.4141 22.6963 34.7681 22.6743C34.5877 22.6743 34.4073 22.6523 34.1367 22.6303C34.1367 21.6837 34.1367 20.7151 34.1367 19.7025Z" fill="white"/>
<path d="M177.862 21.5738C177.862 20.8913 177.862 20.363 177.862 19.6365C179.937 19.6365 181.988 19.6365 184.04 19.6365C186.07 19.6365 188.077 19.6365 190.196 19.6365C190.196 20.2749 190.196 20.8253 190.196 21.5297C188.595 21.5297 186.949 21.5297 185.19 21.5297C185.19 25.9985 185.19 30.3353 185.19 34.738C184.401 34.738 183.747 34.738 182.936 34.738C182.936 30.3793 182.936 26.0426 182.936 21.5738C181.177 21.5738 179.531 21.5738 177.862 21.5738Z" fill="white"/>
<path d="M40.2929 15.5417C40.2704 16.7525 39.2106 17.7651 37.9704 17.7431C36.7528 17.6991 35.693 16.5984 35.7606 15.4317C35.8283 14.2649 36.843 13.3624 38.0831 13.3844C39.3459 13.4284 40.3155 14.375 40.2929 15.5417Z" fill="white"/>
</g>
<defs>
<clipPath id="clip0_669_771">
<rect width="249" height="54" fill="white" transform="translate(0.217041)"/>
</clipPath>
</defs>
</svg>
