<svg width="63" height="42" viewBox="0 0 63 42" fill="none" xmlns="http://www.w3.org/2000/svg">
<path fill-rule="evenodd" clip-rule="evenodd" d="M23.6016 4.45176C23.1761 4.45176 23.1288 4.28628 23.1288 2.56054V0.669312H21.7104C20.0319 0.669312 19.7955 1.09483 21.4267 1.1894L22.5378 1.26032L22.6087 3.08062C22.6796 4.73545 22.7269 4.92457 23.1288 4.92457C23.5543 4.92457 23.6016 5.09005 23.6016 6.34299C23.6016 7.12312 23.6962 7.76141 23.838 7.76141C23.9799 7.76141 24.0744 7.0522 24.0744 6.10659C24.0744 4.61725 24.0271 4.45176 23.6016 4.45176ZM24.9018 1.11848C25.611 1.09484 26.202 0.976632 26.202 0.85843C26.202 0.763869 25.611 0.669312 24.9018 0.669312C24.169 0.669312 23.6016 0.763874 23.6016 0.905716C23.6016 1.04756 24.1453 1.14212 24.9018 1.11848ZM28.5661 4.45176C28.7079 4.45176 28.8025 3.67163 28.8025 2.56054C28.8025 1.44944 28.7079 0.669312 28.5661 0.669312C28.4242 0.669312 28.3297 1.44944 28.3297 2.56054C28.3297 3.67163 28.4242 4.45176 28.5661 4.45176ZM30.0081 3.95532L29.9372 2.39506C29.8899 1.40216 29.7481 0.787512 29.5826 0.716591C29.3462 0.64567 29.2753 1.11848 29.2753 2.5369V4.45176H30.9301H32.5849L32.6086 6.22479C32.6559 8.44698 32.6559 8.44698 32.9395 8.5179C33.0814 8.56518 33.1759 7.71413 33.1759 6.34299V4.09716L31.592 4.02624L30.0081 3.95532ZM32.9395 3.50615C33.2469 3.50615 33.2942 3.24611 33.2469 2.15865C33.1523 0.243784 32.5849 0.149224 32.5849 2.06409C32.5849 3.19883 32.6559 3.50615 32.9395 3.50615ZM37.0766 3.97896V2.32414C37.0766 1.37852 36.982 0.669312 36.8402 0.669312C36.6984 0.669312 36.6038 1.44944 36.6038 2.56054V4.45176H38.3768C39.3934 4.45176 40.1498 4.3572 40.1498 4.21536C40.1498 4.07352 39.4879 3.97896 38.6132 3.97896H37.0766ZM39.4406 1.14212C40.5517 1.14212 41.3319 1.04756 41.3319 0.905716C41.3319 0.763874 40.5517 0.669312 39.4406 0.669312C38.3295 0.669312 37.5494 0.763874 37.5494 0.905716C37.5494 1.04756 38.3295 1.14212 39.4406 1.14212ZM33.5778 5.2319C33.6724 9.65264 34.0979 9.60536 34.1925 5.18461C34.2161 3.1279 34.1688 1.68584 34.027 1.544C33.6015 1.11847 33.5069 1.87497 33.5778 5.2319ZM21.2376 2.08773C21.7577 2.08773 22.1832 1.96953 22.1832 1.85133C22.1832 1.70948 21.7577 1.61493 21.2376 1.61493C20.7175 1.61493 20.292 1.70948 20.292 1.85133C20.292 1.96953 20.7175 2.08773 21.2376 2.08773ZM25.2092 2.13501C25.7529 2.08773 26.202 1.96953 26.202 1.82769C26.202 1.70948 25.611 1.61493 24.9018 1.61493H23.6016V2.79694C23.6016 4.16808 24.0035 4.40448 24.1217 3.08062C24.1926 2.22957 24.2163 2.20593 25.2092 2.13501ZM39.748 2.13501C40.6936 2.08773 41.2846 1.96953 41.2137 1.85133C41.1191 1.70948 40.268 1.61493 39.2988 1.61493H37.5494V2.5369C37.5494 3.69527 37.9749 4.04988 38.0695 2.98606L38.1404 2.20593L39.748 2.13501ZM30.5282 5.5865C31.4502 5.53922 32.2303 5.39738 32.2303 5.27918C32.2303 5.13733 31.3793 5.01913 30.2918 4.97185L28.3297 4.90093V6.8158C28.3297 7.92689 28.4242 8.70702 28.5661 8.70702C28.7079 8.70702 28.8025 8.0451 28.8025 7.1704V5.65742L30.5282 5.5865ZM38.6132 5.39738C39.4879 5.39738 40.1498 5.30282 40.1498 5.16097C40.1498 5.01913 39.3934 4.92457 38.3768 4.92457H36.6038V6.8158V8.70702H38.9915C40.5044 8.70702 41.3082 8.61246 41.2137 8.47062C41.1427 8.32878 40.1735 8.23422 39.0624 8.23422H37.0766V6.8158V5.39738H38.6132ZM22.8924 8.70702C23.0342 8.70702 23.1288 7.99781 23.1288 7.0522C23.1288 6.10659 23.0342 5.39738 22.8924 5.39738C22.7506 5.39738 22.656 6.10659 22.656 7.0522C22.656 7.99781 22.7506 8.70702 22.8924 8.70702ZM39.6298 7.24132C38.1404 7.1704 38.1404 7.1704 38.0695 6.39027C37.9513 5.25553 37.5494 5.4683 37.5494 6.6976V7.76141H39.3224C41.4737 7.76141 41.7101 7.33588 39.6298 7.24132ZM29.3226 7.14676C29.4171 8.82522 29.8663 8.89615 29.8663 7.24132C29.8663 6.46119 29.7481 5.98838 29.559 5.91746C29.3226 5.84654 29.2753 6.13023 29.3226 7.14676ZM1.8525 27.4065C1.8525 22.2057 1.78158 17.8086 1.71066 17.5958C1.56882 17.2175 0.883248 17.0757 0.599565 17.383C0.505004 17.4539 0.434082 22.1347 0.434082 27.7611C0.434082 36.8627 0.481363 37.9974 0.812327 38.1156C1.37969 38.3284 10.6704 38.2811 11.025 38.0447C11.2141 37.9265 11.3086 37.6428 11.2614 37.4064C11.1904 36.9809 10.8595 36.9572 6.50965 36.8863L1.8525 36.839V27.4065ZM62.159 29.085C62.159 24.4515 59.7004 20.3381 55.7052 18.305C54.4523 17.6667 53.5539 17.4067 52.3955 17.2885C50.5989 17.123 50.5989 17.123 50.5043 18.9669L50.4334 20.1253L49.3459 20.3853C42.9394 22.0165 40.8118 30.9053 45.658 35.7516C47.1237 37.2173 48.6604 37.8792 50.788 37.9738C53.3175 38.092 54.9487 37.4537 56.7217 35.6334C58.6366 33.6949 59.1803 32.2528 59.1803 29.0377C59.1803 26.8392 59.1094 26.39 58.542 25.208C57.4782 22.9385 54.7596 20.4563 53.7667 20.8345C53.0811 21.0946 53.3648 21.8274 54.3104 22.3711C59.2985 25.1843 59.0857 33.5294 53.9794 36.0352C51.3317 37.3118 48.5658 36.7445 46.4618 34.5223C44.9488 32.8911 44.3342 31.0944 44.4524 28.6831C44.6651 24.9007 46.8164 22.3002 50.2915 21.6146L51.6154 21.331L51.6863 19.9598L51.7573 18.5887L52.6792 18.7069C54.9251 19.0142 57.5964 20.8345 59.0385 23.104C62.6082 28.6595 60.5987 36.1771 54.8069 39.0376C53.4357 39.7231 53.0575 39.7941 51.1426 39.7941C49.2041 39.7941 48.8495 39.7231 47.4547 39.0376C44.3106 37.4773 42.1356 34.4277 41.5446 30.7398C40.8827 26.6737 42.7503 22.4184 46.2254 20.0071C47.2892 19.2979 47.5256 18.7305 46.8637 18.4705C45.8708 18.0922 42.8685 20.74 41.6392 23.0567C40.5517 25.0898 40.1026 26.9101 40.1026 29.2505C40.1026 31.6381 40.3863 32.8202 41.4501 34.9714C45.6108 43.2219 56.6508 43.2456 60.8115 34.9951C61.8753 32.8911 62.159 31.5672 62.159 29.085ZM30.5046 30.7635C30.5992 30.3143 26.7694 18.2341 26.3675 17.7376C26.2493 17.5958 25.8947 17.4539 25.5638 17.4539C25.4572 17.4539 25.3763 17.4321 25.2987 17.4406C24.8597 17.4887 24.5272 18.5089 20.2683 29.9597C16.7696 39.3449 16.2967 40.7633 16.6041 41.047C16.7932 41.2361 17.1005 41.3307 17.266 41.2834C17.4551 41.2125 19.3936 36.2717 21.5922 30.3379L25.611 19.5107L27.5023 25.2789C29.1571 30.3143 29.4644 31.0471 29.9136 31.1181C30.2445 31.1653 30.4573 31.0471 30.5046 30.7635ZM48.3767 18.8251C49.015 18.9196 49.3223 18.305 48.8968 17.8086C48.5658 17.4067 48.424 17.383 47.9984 17.6667C47.502 17.974 47.762 18.7542 48.3767 18.8251ZM33.0577 30.4088C33.0577 30.1015 32.2776 27.5247 31.332 24.6642C29.6299 19.5107 29.2753 18.8487 28.6134 19.6289C28.4479 19.8653 28.8261 21.3546 30.1027 25.3498C31.072 28.3285 31.9467 30.858 32.0885 30.9999C32.4431 31.3545 33.0577 30.9999 33.0577 30.4088ZM4.71298 35.1369C4.94939 34.7823 4.99667 21.2364 4.7839 20.669C4.61842 20.2199 3.76737 20.1726 3.62553 20.5981C3.55461 20.7636 3.53097 24.1205 3.55461 28.0921C3.62553 34.9242 3.64917 35.3024 4.07469 35.3733C4.3111 35.4206 4.59478 35.326 4.71298 35.1369ZM21.4267 39.0139C22.0413 37.8556 26.2493 24.9952 26.1311 24.6642C25.8711 24.026 25.091 24.2624 24.7836 25.0661C23.4125 28.8722 20.292 38.4466 20.292 38.8957C20.292 39.5577 21.1194 39.6522 21.4267 39.0139ZM36.8402 40.6924C36.8402 40.456 36.1783 38.4938 35.3745 36.2953L33.9324 32.3474H29.3462H24.76L24.8309 32.8674C24.9016 33.409 24.9722 33.4112 28.8746 33.528L28.9207 33.5294L32.9159 33.6476L34.2398 37.2645C34.9726 39.2503 35.6818 40.9761 35.8473 41.1416C36.2019 41.4962 36.8402 41.2125 36.8402 40.6924ZM33.1996 39.0849C33.3651 38.683 32.3958 35.6097 32.0176 35.3733C31.6866 35.1369 24.2163 35.1369 24.0035 35.3497C23.6489 35.7043 23.8617 36.3662 24.3817 36.4844C24.6654 36.5553 26.3203 36.6263 28.0696 36.6735L31.2374 36.7208L31.7102 38.0683C32.0412 39.1085 32.254 39.4395 32.6086 39.4395C32.8686 39.4395 33.1287 39.274 33.1996 39.0849ZM12.5379 38.2102C12.9635 38.2811 13.5545 37.4537 13.3181 37.0754C13.2471 36.9336 12.9162 36.839 12.5852 36.839C12.0651 36.839 11.9942 36.9336 12.0651 37.4773C12.1124 37.8556 12.3015 38.1629 12.5379 38.2102ZM13.1526 40.5269C13.1999 40.2905 13.1053 40.0068 12.9162 39.8886C12.7507 39.7704 10.7413 39.6759 8.44816 39.6759C4.09835 39.6759 3.24728 39.8413 3.57825 40.716C3.72009 41.0706 4.21655 41.0943 8.40088 41.047C12.7507 40.9761 13.0817 40.9524 13.1526 40.5269ZM20.2683 41.3307C20.8121 41.3307 21.0957 40.6688 20.7411 40.2432C20.3865 39.8177 19.8428 39.8177 19.6773 40.2669C19.4646 40.8106 19.7482 41.3307 20.2683 41.3307Z" fill="white"/>
</svg>
