<svg width="188" height="26" viewBox="0 0 188 26" fill="none" xmlns="http://www.w3.org/2000/svg">
<path d="M163.006 7.99688C162.725 4.23197 160.197 1.2885 156.382 0.30734C154.954 -0.0805603 152.286 -0.0577426 150.882 0.30734C147.511 1.22005 145.311 3.54744 144.445 7.107C143.977 9.06931 143.953 17.1011 144.421 19.0406C144.96 21.2539 145.638 22.5089 146.973 23.8095C148.564 25.3611 150.203 26 152.66 26C155.188 26 156.897 25.1558 157.81 23.4216C158.348 22.4405 158.606 22.6914 158.606 24.1746V25.5436H163.053V12.7658H152.052V17.5575H158.184L158.044 18.1279C157.599 19.8164 156.663 20.7976 155.048 21.2083C152.66 21.8472 150.273 20.5922 149.43 18.3105C149.032 17.1468 149.032 9.1834 149.43 7.81434C149.805 6.60501 150.741 5.48694 151.748 5.09904C152.871 4.64269 154.954 4.68833 156.008 5.21313C157.155 5.78357 157.669 6.55937 157.974 8.22506L158.255 9.5713H163.123L163.006 7.99688Z" fill="white"/>
<path fill-rule="evenodd" clip-rule="evenodd" d="M187.162 7.06136C186.343 3.50181 184.143 1.19723 180.725 0.30734C177.94 -0.422825 174.078 0.193251 172.088 1.6764C170.847 2.5891 169.724 4.20916 169.115 5.92048C168.647 7.19827 168.577 7.99688 168.483 11.9443C168.366 17.2608 168.624 19.3144 169.63 21.3908C170.52 23.1934 171.667 24.2659 173.586 25.1786C175.014 25.8403 175.271 25.8859 177.799 25.8859C179.274 25.8859 180.912 25.749 181.451 25.6121C183.721 24.9276 185.734 23.0109 186.741 20.5694C187.209 19.3829 187.279 18.8124 187.349 13.7926C187.419 10.0277 187.349 7.92843 187.162 7.06136ZM176.02 4.87087C175.178 5.23595 174.241 6.37683 173.844 7.4949C173.492 8.52169 173.492 17.5803 173.844 18.8124C174.218 20.1131 175.342 21.0942 176.793 21.3908C179.555 21.9841 181.685 20.7291 182.223 18.242C182.551 16.7817 182.551 9.34313 182.223 7.97407C181.708 5.73794 180.21 4.55142 177.987 4.55142C177.308 4.57424 176.418 4.71115 176.02 4.87087Z" fill="white"/>
<path d="M16.8777 5.12186L17.0182 0.444246H0.375977V25.5436H5.2914V15.2757H16.7607V10.7122H5.2914V5.23595L11.0963 5.19031L16.8777 5.12186Z" fill="white"/>
<path d="M29.4004 20.9801V0.444246H26.9895C25.6553 0.444246 24.485 0.512698 24.4147 0.603969C24.3211 0.672422 24.2509 6.3312 24.2509 13.1537V25.5436H40.8697V20.9801H29.4004Z" fill="white"/>
<path fill-rule="evenodd" clip-rule="evenodd" d="M67.5534 25.4296C67.5534 25.2927 61.7251 1.4254 61.5613 0.832145C61.4442 0.489881 61.0229 0.444246 56.8097 0.444246H52.1986L49.6472 10.8719C49.1377 12.9581 48.6343 15.0324 48.1851 16.8832L48.181 16.9002L48.1806 16.902C47.3939 20.1434 46.7745 22.6961 46.5809 23.4216L46.066 25.5436H51.3559L51.8709 23.3075C51.9678 22.8902 52.0647 22.4755 52.1521 22.1021L52.1539 22.0941L52.155 22.0893C52.3193 21.3866 52.449 20.832 52.4795 20.6835C52.5965 20.3412 53.0178 20.2956 56.8565 20.2956H61.1166L61.7017 22.8512L62.2869 25.4296L64.9318 25.498C66.3597 25.5208 67.5534 25.498 67.5534 25.4296ZM54.2714 13.0352C54.5405 11.8851 54.9019 10.3402 55.2883 8.70423C56.0139 5.5554 56.7161 2.95419 56.8097 2.95419C56.9033 2.95419 57.0438 3.13673 57.114 3.34209C57.3715 4.11789 59.8292 14.9106 59.8292 15.2073C59.8292 15.4354 59.1504 15.5039 56.7629 15.5039C54.4824 15.5039 53.898 15.5039 53.7964 15.288C53.7613 15.2136 53.7836 15.1136 53.8136 14.9791C53.8476 14.8465 54.0188 14.1148 54.2714 13.0352Z" fill="white"/>
<path d="M80.6612 20.3412C80.6612 18.5386 79.8888 7.51771 79.2568 0.489881C79.2568 0.467063 77.314 0.444246 74.9265 0.444246H70.5963V25.5436H75.3245L75.184 15.5495C75.1138 10.0733 74.9734 5.03059 74.9031 4.36888C74.7861 3.45617 74.8329 3.18236 75.0904 3.18236C75.3479 3.18236 75.6053 5.23595 76.3075 13.3818C76.7991 19.0178 77.2438 24.0377 77.314 24.5625L77.4545 25.5436H81.1527C83.985 25.5436 84.8744 25.4752 84.8744 25.247C84.8744 24.7678 86.4895 5.64667 86.6299 4.36888C86.747 3.52463 86.8874 3.18236 87.1449 3.18236C87.4024 3.18236 87.4492 3.29645 87.3087 3.57026C87.2151 3.79844 87.0981 8.84114 87.0278 14.7737L86.9342 25.5665L91.5453 25.4296V0.558334L87.1917 0.489881L82.8614 0.444246L82.1124 10.1874C81.6911 15.5723 81.3634 20.5922 81.3634 21.368C81.3634 22.5089 81.2932 22.8055 81.0123 22.8055C80.7314 22.8055 80.6612 22.372 80.6612 20.3412Z" fill="white"/>
<path d="M113.899 5.23595V0.444246H96.5544L96.6948 5.12186L102.664 5.25877V20.9801H96.5778V25.5436H113.899V20.9801H107.813V5.23595H113.899Z" fill="white"/>
<path d="M131.571 11.5108C130.845 5.98893 130.213 1.24286 130.143 0.946234C130.049 0.444246 130.026 0.444246 125.251 0.444246H120.453V25.5436H125.602V14.2033C125.602 7.81434 125.696 2.95419 125.813 3.09109C125.953 3.25082 128.903 24.5169 128.879 25.3611C128.879 25.4752 131.033 25.5436 133.678 25.5436H138.476V0.444246H133.561V11.739C133.561 18.1736 133.467 23.0337 133.35 23.0337C133.072 23.0337 133.069 23.0114 131.618 11.8691L131.617 11.8683L131.571 11.5108Z" fill="white"/>
</svg>
