<svg width="160" height="35" viewBox="0 0 160 35" fill="none" xmlns="http://www.w3.org/2000/svg">
<path d="M11.0701 29.2321H10.8742L4.68602 9.68387H0L8.84956 34.41H12.9968L21.83 9.68387H17.3562L11.0701 29.2321Z" fill="white"/>
<path d="M46.4029 17.5328C46.4029 16.0745 46.1743 14.8291 45.7008 13.7477C45.2436 12.6826 44.5905 11.8142 43.7415 11.126C42.8925 10.4541 41.9128 9.94617 40.7699 9.60207C39.6269 9.25797 38.4024 9.09412 37.0798 9.09412C35.7573 9.09412 34.5327 9.29075 33.3898 9.66762C32.2469 10.0609 31.2509 10.6016 30.4019 11.3062C29.5528 12.0108 28.8834 12.8628 28.3772 13.8296C27.8711 14.7964 27.6262 15.8778 27.6262 17.0412H31.9693C31.9693 15.4518 32.4265 14.3048 33.3571 13.6002C34.2715 12.912 35.5124 12.5515 37.0472 12.5515C37.8146 12.5515 38.5167 12.6334 39.1534 12.7809C39.7902 12.9284 40.329 13.1906 40.7699 13.5674C41.2107 13.9443 41.5699 14.4359 41.8148 15.0749C42.0598 15.714 42.174 16.5005 42.174 17.4673V19.4499L34.1572 20.2037C31.7081 20.4167 29.863 21.236 28.6385 22.6124C27.4139 24.0052 26.7935 25.6601 26.7935 27.5937C26.7935 28.5768 26.9731 29.5108 27.3323 30.412C27.6915 31.3133 28.1813 32.0834 28.8344 32.7388C29.5528 33.4762 30.4182 34.0333 31.4142 34.4266C32.4101 34.8034 33.5204 35.0001 34.745 35.0001C36.59 35.0001 38.1738 34.574 39.4963 33.7383C40.8189 32.8863 41.8148 31.5918 42.5006 29.8385H42.6965L42.7945 34.4102H50.1582V30.6742H46.4845V17.5328H46.4029V17.5328ZM42.1577 23.9396C42.1577 26.1681 41.5862 27.9869 40.4596 29.3961C39.333 30.8053 37.7819 31.5099 35.8063 31.5099C34.4184 31.5099 33.3408 31.2477 32.5571 30.7234C31.7734 30.199 31.3815 29.3633 31.3815 28.2163V26.037C31.3815 25.3324 31.4958 24.7589 31.7244 24.3493C31.953 23.9396 32.5081 23.6939 33.4061 23.6447L42.1577 22.8254V23.9396Z" fill="white"/>
<path d="M57.3914 34.41H61.7345V13.4526H69.2289V9.68387H57.3914V34.41Z" fill="white"/>
<path d="M81.4096 9.68387H77.0664V34.41H81.4096V9.68387Z" fill="white"/>
<path d="M110.865 9.684H106.521V13.7149C105.754 12.2238 104.709 11.0932 103.403 10.2903C102.097 9.48737 100.513 9.09412 98.6352 9.09412C97.0025 9.09412 95.5657 9.43821 94.3411 10.11C93.1165 10.7819 92.0879 11.7158 91.2878 12.8628C90.4715 14.0262 89.8673 15.4026 89.4755 16.9921C89.0673 18.5815 88.8713 20.2692 88.8713 22.0553C88.8713 23.8741 89.0673 25.5618 89.4755 27.1185C89.8837 28.6751 90.4878 30.0515 91.2878 31.2149C92.1042 32.3783 93.1165 33.3123 94.3248 33.9841C95.5493 34.656 96.9862 35.0001 98.6352 35.0001C100.513 35.0001 102.097 34.6068 103.403 33.8039C104.709 33.001 105.754 31.8704 106.521 30.3793V34.4102H107.175H114.538V30.6742H110.865V9.684ZM106.521 24.1363C106.521 26.2664 105.934 28.0361 104.774 29.4125C103.615 30.8053 101.933 31.4935 99.7455 31.4935C97.9005 31.4935 96.3984 30.9692 95.2228 29.9368C94.0472 28.9045 93.4594 27.5445 93.4594 25.8732V18.2046C93.4594 16.5333 94.0472 15.1732 95.2228 14.1246C96.3984 13.0759 97.9005 12.5679 99.7455 12.5679C101.933 12.5679 103.615 13.2725 104.774 14.6653C105.934 16.0581 106.521 17.8277 106.521 19.9579V24.1363Z" fill="white"/>
<path d="M138.001 11.1423C137.299 10.4378 136.45 9.91341 135.486 9.58569C134.507 9.25797 133.429 9.09412 132.237 9.09412C130.359 9.09412 128.841 9.50376 127.665 10.3394C126.49 11.1751 125.559 12.3057 124.873 13.7641V9.684H120.53V34.4102H124.873V19.9579C124.873 18.8764 125.02 17.8933 125.331 16.9921C125.641 16.0909 126.065 15.3043 126.62 14.6325C127.176 13.9771 127.812 13.4527 128.563 13.1086C129.298 12.7481 130.115 12.5679 131.013 12.5679C132.89 12.5679 134.164 13.0923 134.866 14.1246C135.552 15.1569 135.911 16.5824 135.911 18.4012V34.4102H140.254V17.9261C140.254 16.3366 140.058 14.9766 139.666 13.8624C139.258 12.7645 138.703 11.8469 138.001 11.1423Z" fill="white"/>
<path d="M159.913 13.4035V9.68392H154.296V1.42548H149.953V9.68392H145.838V13.4035H149.953V34.4101H159.913V30.6741H154.296V13.4035H159.913Z" fill="white"/>
<path d="M79.238 0C77.6052 0 76.2664 1.32725 76.2664 2.98221V3.01499C76.2664 4.65357 77.5889 5.9972 79.238 5.9972C80.8707 5.9972 82.2096 4.66995 82.2096 3.01499V2.98221C82.2096 1.34363 80.8871 0 79.238 0Z" fill="white"/>
</svg>
